<svg xmlns="http://www.w3.org/2000/svg" version="1.1" viewBox="14 16.29 1783.59 206.97"><path d="M 479.750 29.737 C 482.637 29.939, 487.363 29.939, 490.250 29.737 C 493.137 29.535, 490.775 29.370, 485 29.370 C 479.225 29.370, 476.863 29.535, 479.750 29.737 M 437.784 30.738 C 440.689 30.941, 445.189 30.939, 447.784 30.734 C 450.378 30.528, 448 30.363, 442.500 30.365 C 437 30.368, 434.878 30.536, 437.784 30.738 M 140.750 31.747 L 152 32.066 152 34.592 C 152 35.981, 152.390 36.877, 152.866 36.583 C 153.342 36.289, 153.515 34.912, 153.249 33.524 L 152.767 31 141.133 31.214 L 129.500 31.428 140.750 31.747 M 397.287 31.740 C 400.469 31.939, 405.419 31.937, 408.287 31.736 C 411.154 31.535, 408.550 31.372, 402.500 31.374 C 396.450 31.376, 394.104 31.541, 397.287 31.740 M 627.784 31.738 C 630.689 31.941, 635.189 31.939, 637.784 31.734 C 640.378 31.528, 638 31.363, 632.500 31.365 C 627 31.368, 624.878 31.536, 627.784 31.738 M 714.784 31.738 C 717.689 31.941, 722.189 31.939, 724.784 31.734 C 727.378 31.528, 725 31.363, 719.500 31.365 C 714 31.368, 711.878 31.536, 714.784 31.738 M 75.750 32.743 C 79.737 32.932, 86.263 32.932, 90.250 32.743 C 94.237 32.553, 90.975 32.397, 83 32.397 C 75.025 32.397, 71.763 32.553, 75.750 32.743 M 176.304 32.747 C 182.247 32.924, 191.697 32.923, 197.304 32.745 C 202.912 32.567, 198.050 32.422, 186.500 32.423 C 174.950 32.424, 170.362 32.570, 176.304 32.747 M 312.997 47.703 C 312.724 56.614, 312.850 63.555, 313.277 63.126 C 313.704 62.697, 313.928 55.406, 313.774 46.923 L 313.494 31.500 312.997 47.703 M 669.750 32.737 C 672.638 32.939, 677.362 32.939, 680.250 32.737 C 683.138 32.535, 680.775 32.370, 675 32.370 C 669.225 32.370, 666.862 32.535, 669.750 32.737 M 827.750 32.749 L 849 33.040 849 39.520 C 849 43.084, 849.337 46.001, 849.750 46.002 C 850.163 46.003, 850.351 42.853, 850.168 39.002 L 849.836 32 828.168 32.229 L 806.500 32.458 827.750 32.749 M 26.460 34.250 C 26.198 34.938, 26.100 72.850, 26.242 118.500 L 26.500 201.500 63.500 201.518 L 100.500 201.537 63.750 201.256 L 27 200.976 27 117.534 L 27 34.091 33.750 33.742 L 40.500 33.392 33.719 33.196 C 29.062 33.061, 26.788 33.392, 26.460 34.250 M 1249.750 34.737 C 1252.638 34.939, 1257.362 34.939, 1260.250 34.737 C 1263.138 34.535, 1260.775 34.370, 1255 34.370 C 1249.225 34.370, 1246.862 34.535, 1249.750 34.737 M 1220.374 36.467 C 1220.065 37.274, 1220.043 38.511, 1220.327 39.217 C 1220.610 39.923, 1220.878 39.503, 1220.921 38.285 C 1220.996 36.170, 1221.461 36.055, 1231.250 35.746 L 1241.500 35.422 1231.219 35.211 C 1222.966 35.042, 1220.826 35.289, 1220.374 36.467 M 1339.250 35.739 C 1342.412 35.937, 1347.588 35.937, 1350.750 35.739 C 1353.912 35.541, 1351.325 35.378, 1345 35.378 C 1338.675 35.378, 1336.088 35.541, 1339.250 35.739 M 1365.287 36.740 C 1368.469 36.939, 1373.419 36.937, 1376.287 36.736 C 1379.154 36.535, 1376.550 36.372, 1370.500 36.374 C 1364.450 36.376, 1362.104 36.541, 1365.287 36.740 M 386.998 124.798 L 387.496 144.500 387.771 125.573 C 387.922 115.163, 387.698 106.297, 387.273 105.871 C 386.848 105.444, 386.724 113.962, 386.998 124.798 M 696.816 105.726 C 698.984 106.119, 699.118 106.557, 698.900 112.573 C 698.771 116.108, 698.988 119.322, 699.381 119.715 C 699.775 120.108, 699.962 117.070, 699.798 112.965 C 699.511 105.779, 699.407 105.496, 697 105.404 C 694.690 105.314, 694.676 105.339, 696.816 105.726 M 385.442 150 C 385.442 166.225, 385.580 172.862, 385.748 164.750 C 385.916 156.637, 385.916 143.362, 385.748 135.250 C 385.580 127.137, 385.442 133.775, 385.442 150 M 1434 135.316 C 1434 137.458, 1440.826 142.862, 1445.565 144.471 C 1450.150 146.027, 1457.780 145.723, 1461.292 143.844 C 1463.992 142.399, 1471 135.931, 1471 134.884 C 1471 134.398, 1462.675 134, 1452.500 134 C 1437.872 134, 1434 134.275, 1434 135.316 M 1338.385 154 C 1338.385 160.875, 1338.545 163.688, 1338.740 160.250 C 1338.936 156.813, 1338.936 151.188, 1338.740 147.750 C 1338.545 144.313, 1338.385 147.125, 1338.385 154 M 698.857 154.250 C 698.661 154.938, 698.738 165.400, 699.030 177.500 L 699.559 199.500 699.780 176.250 C 699.983 154.798, 699.819 150.882, 698.857 154.250 M 775.467 181.500 L 775.500 201.500 812 201.500 L 848.500 201.500 848.605 197.741 L 848.710 193.983 848.294 197.491 L 847.879 201 811.961 201 L 776.042 201 775.738 181.250 L 775.433 161.500 775.467 181.500 M 765.370 181 C 765.370 186.775, 765.535 189.137, 765.737 186.250 C 765.939 183.363, 765.939 178.637, 765.737 175.750 C 765.535 172.863, 765.370 175.225, 765.370 181 M 1724.998 190.202 C 1724.724 201.038, 1724.848 209.556, 1725.273 209.129 C 1725.698 208.703, 1725.922 199.837, 1725.771 189.427 L 1725.496 170.500 1724.998 190.202 M 395.382 183.500 C 395.384 190.100, 395.546 192.670, 395.741 189.211 C 395.937 185.752, 395.936 180.352, 395.738 177.211 C 395.540 174.070, 395.380 176.900, 395.382 183.500 M 321.864 201.265 C 322.285 201.685, 336.550 201.910, 353.565 201.764 L 384.500 201.498 352.799 200.999 C 335.363 200.725, 321.443 200.844, 321.864 201.265 M 1500.405 203.155 C 1499.962 203.870, 1500.130 204.038, 1500.845 203.595 C 1501.660 203.092, 1502 204.372, 1502 207.941 L 1502 213 1546.500 213 C 1584.225 213, 1591 212.784, 1591 211.583 C 1591 210.804, 1591.563 209.940, 1592.250 209.662 C 1593.229 209.267, 1593.222 209.141, 1592.219 209.079 C 1591.514 209.036, 1590.678 209.675, 1590.362 210.500 C 1589.862 211.801, 1584.042 212, 1546.393 212 L 1503 212 1503 207 C 1503 202.229, 1501.944 200.664, 1500.405 203.155 M 1201.248 210.521 C 1200.503 211.853, 1194.958 212.008, 1156.698 211.771 C 1132.664 211.622, 1113 211.838, 1113 212.250 C 1113 212.662, 1133.025 213, 1157.500 213 C 1195.225 213, 1202 212.784, 1202 211.583 C 1202 210.804, 1202.563 209.940, 1203.250 209.662 C 1204.167 209.292, 1204.181 209.137, 1203.300 209.079 C 1202.640 209.036, 1201.716 209.684, 1201.248 210.521 M 1297.250 212.748 C 1307.013 212.912, 1322.987 212.912, 1332.750 212.748 C 1342.513 212.585, 1334.525 212.451, 1315 212.451 C 1295.475 212.451, 1287.487 212.585, 1297.250 212.748" stroke="none" fill="#d16a27" fill-rule="evenodd"/><path d="M 455.287 23.740 C 458.469 23.939, 463.419 23.937, 466.287 23.736 C 469.154 23.535, 466.550 23.372, 460.500 23.374 C 454.450 23.376, 452.104 23.541, 455.287 23.740 M 723.750 24.737 C 726.638 24.939, 731.362 24.939, 734.250 24.737 C 737.138 24.535, 734.775 24.370, 729 24.370 C 723.225 24.370, 720.862 24.535, 723.750 24.737 M 98.750 25.737 C 101.638 25.939, 106.362 25.939, 109.250 25.737 C 112.138 25.535, 109.775 25.370, 104 25.370 C 98.225 25.370, 95.862 25.535, 98.750 25.737 M 834.185 25.739 L 855.871 26.039 856.330 28.769 C 856.761 31.329, 856.780 31.312, 856.645 28.500 L 856.500 25.500 834.500 25.469 L 812.500 25.439 834.185 25.739 M 42.292 26.742 C 46.027 26.935, 51.877 26.934, 55.292 26.739 C 58.706 26.545, 55.650 26.387, 48.500 26.389 C 41.350 26.390, 38.556 26.550, 42.292 26.742 M 1119.432 43.318 C 1119.154 44.042, 1119.073 49.330, 1119.252 55.068 L 1119.578 65.500 1119.789 54.333 C 1119.937 46.502, 1120.373 43.016, 1121.250 42.662 C 1122.229 42.267, 1122.222 42.141, 1121.219 42.079 C 1120.514 42.036, 1119.710 42.593, 1119.432 43.318 M 1030.097 66.097 C 1028.325 72.759, 1027.058 78.391, 1027.279 78.613 C 1027.501 78.834, 1029.132 73.565, 1030.903 66.903 C 1032.675 60.241, 1033.942 54.609, 1033.721 54.387 C 1033.499 54.166, 1031.868 59.435, 1030.097 66.097 M 1432.387 115.750 C 1432.085 116.713, 1431.471 118.429, 1431.024 119.565 C 1429.977 122.225, 1430.498 129.193, 1431.945 131.898 C 1433.029 133.923, 1433.780 134, 1452.437 134 L 1471.804 134 1472.902 130.851 C 1473.506 129.119, 1474 126.036, 1474 124 C 1474 121.964, 1473.506 118.881, 1472.902 117.149 L 1471.804 114 1452.371 114 C 1434.739 114, 1432.886 114.162, 1432.387 115.750 M 1010.593 139.593 C 1009.123 145.457, 1008.104 150.438, 1008.328 150.662 C 1008.552 150.886, 1009.938 146.271, 1011.407 140.407 C 1012.877 134.543, 1013.896 129.562, 1013.672 129.338 C 1013.448 129.114, 1012.062 133.729, 1010.593 139.593 M 1067.206 154.741 C 1070.895 154.932, 1077.195 154.934, 1081.206 154.743 C 1085.218 154.553, 1082.200 154.396, 1074.500 154.395 C 1066.800 154.393, 1063.518 154.549, 1067.206 154.741 M 365.116 178.210 C 365.001 180.898, 364.937 180.922, 356.750 181.256 L 348.500 181.593 356.781 181.796 C 365.481 182.010, 366.753 181.370, 365.701 177.308 C 365.390 176.108, 365.193 176.411, 365.116 178.210 M 1075.190 189.500 C 1075.166 190.600, 1075.969 195.775, 1076.975 201 C 1077.981 206.225, 1078.831 209.375, 1078.864 208 C 1078.898 206.625, 1078.094 201.450, 1077.080 196.500 C 1076.065 191.550, 1075.214 188.400, 1075.190 189.500 M 1236.206 208.741 C 1239.895 208.932, 1246.195 208.934, 1250.206 208.743 C 1254.218 208.553, 1251.200 208.396, 1243.500 208.395 C 1235.800 208.393, 1232.518 208.549, 1236.206 208.741 M 1625.206 208.741 C 1628.895 208.932, 1635.195 208.934, 1639.206 208.743 C 1643.218 208.553, 1640.200 208.396, 1632.500 208.395 C 1624.800 208.393, 1621.518 208.549, 1625.206 208.741 M 1445.750 209.737 C 1448.638 209.939, 1453.362 209.939, 1456.250 209.737 C 1459.138 209.535, 1456.775 209.370, 1451 209.370 C 1445.225 209.370, 1442.862 209.535, 1445.750 209.737" stroke="none" fill="#9f48cb" fill-rule="evenodd"/><path d="M 1449 103.003 C 1446.525 103.317, 1443.150 104.442, 1441.500 105.504 C 1437.891 107.826, 1434 111.742, 1434 113.052 C 1434 113.615, 1441.516 114, 1452.535 114 C 1469.880 114, 1471.010 113.888, 1470.127 112.250 C 1466.653 105.805, 1457.723 101.897, 1449 103.003 M 1649.395 150.500 C 1649.396 158.200, 1649.553 161.218, 1649.743 157.206 C 1649.934 153.195, 1649.932 146.895, 1649.741 143.206 C 1649.549 139.518, 1649.393 142.800, 1649.395 150.500 M 1700.397 157 C 1700.397 164.975, 1700.553 168.238, 1700.743 164.250 C 1700.932 160.262, 1700.932 153.738, 1700.743 149.750 C 1700.553 145.762, 1700.397 149.025, 1700.397 157 M 1238.413 171.500 C 1238.414 181.400, 1238.564 185.315, 1238.746 180.199 C 1238.928 175.084, 1238.927 166.984, 1238.744 162.199 C 1238.561 157.415, 1238.412 161.600, 1238.413 171.500 M 1627.413 171.500 C 1627.414 181.400, 1627.564 185.315, 1627.746 180.199 C 1627.928 175.084, 1627.927 166.984, 1627.744 162.199 C 1627.561 157.415, 1627.412 161.600, 1627.413 171.500 M 1376.370 178 C 1376.370 183.775, 1376.535 186.137, 1376.737 183.250 C 1376.939 180.363, 1376.939 175.637, 1376.737 172.750 C 1376.535 169.863, 1376.370 172.225, 1376.370 178 M 1141.750 200.748 C 1150.138 200.915, 1163.862 200.915, 1172.250 200.748 C 1180.638 200.581, 1173.775 200.444, 1157 200.444 C 1140.225 200.444, 1133.362 200.581, 1141.750 200.748 M 1303.750 200.747 C 1310.487 200.920, 1321.513 200.920, 1328.250 200.747 C 1334.987 200.574, 1329.475 200.432, 1316 200.432 C 1302.525 200.432, 1297.013 200.574, 1303.750 200.747 M 1531.312 200.748 C 1540.009 200.915, 1553.959 200.915, 1562.312 200.748 C 1570.666 200.581, 1563.550 200.444, 1546.500 200.445 C 1529.450 200.445, 1522.616 200.582, 1531.312 200.748" stroke="none" fill="#40b633" fill-rule="evenodd"/><path d="M 1646 44.611 C 1637.475 45.356, 1623.672 46.649, 1615.327 47.486 C 1601.492 48.873, 1599.551 48.864, 1593.327 47.388 C 1587.474 46, 1582.076 45.857, 1555.500 46.385 C 1538.450 46.723, 1522.362 47.283, 1519.750 47.630 L 1515 48.260 1515 59.130 C 1515 65.109, 1514.638 70, 1514.196 70 C 1513.754 70, 1511.842 68.391, 1509.946 66.424 C 1501.135 57.282, 1483.536 47.963, 1470.297 45.430 C 1460.716 43.597, 1444.271 43.599, 1434.673 45.435 C 1420.599 48.128, 1404.367 56.723, 1395.054 66.414 C 1393.158 68.386, 1391.225 70, 1390.758 70 C 1390.291 70, 1390.217 65.524, 1390.593 60.054 C 1391.277 50.137, 1391.272 50.107, 1388.889 49.598 C 1387.575 49.317, 1371.932 48.569, 1354.126 47.936 C 1327.628 46.994, 1321.605 47.021, 1320.945 48.089 C 1320.501 48.807, 1318.247 56.984, 1315.935 66.262 C 1313.622 75.540, 1311.399 82.764, 1310.994 82.315 C 1310.589 81.867, 1308.125 73.625, 1305.519 64 C 1302.913 54.375, 1300.449 46.142, 1300.044 45.704 C 1299.334 44.936, 1245.862 46.547, 1237.294 47.595 L 1233.089 48.109 1232.794 54.562 L 1232.500 61.015 1227.642 57.556 C 1224.970 55.653, 1219.570 52.765, 1215.642 51.136 C 1203.356 46.044, 1198.922 45.623, 1165.124 46.340 C 1148.281 46.698, 1132.588 47.276, 1130.250 47.627 L 1126 48.263 1126 77.832 C 1126 94.094, 1125.634 106.972, 1125.186 106.450 C 1124.739 105.927, 1120.861 93.125, 1116.570 78 C 1112.278 62.875, 1108.354 49.712, 1107.848 48.750 C 1107.003 47.139, 1104.392 47, 1075 47 C 1044.716 47, 1043.018 47.097, 1042.059 48.890 C 1041.503 49.929, 1038.517 60.391, 1035.424 72.140 C 1032.331 83.888, 1027.882 100.700, 1025.537 109.500 C 1016.220 144.474, 1009.697 169.011, 1006.997 179.241 C 1005.438 185.149, 1004.528 190.208, 1004.975 190.484 C 1005.422 190.761, 1017.873 193.464, 1032.644 196.492 C 1047.415 199.520, 1060.492 202.271, 1061.705 202.604 C 1063.447 203.082, 1064.024 202.715, 1064.454 200.855 C 1065.452 196.544, 1071 169.938, 1071 169.465 C 1071 169.209, 1072.526 169, 1074.392 169 C 1078.347 169, 1077.833 167.630, 1081.505 187.976 C 1082.942 195.937, 1084.297 202.631, 1084.516 202.850 C 1084.835 203.168, 1110.365 198.903, 1123.250 196.380 C 1125.541 195.931, 1126 196.188, 1126 197.921 C 1126 199.982, 1126.265 200, 1157.500 200 L 1189 200 1189 194.500 C 1189 191.475, 1189.205 189, 1189.456 189 C 1189.707 189, 1192.069 190.271, 1194.706 191.823 C 1205.427 198.137, 1218.746 201.421, 1238.090 202.519 C 1247.919 203.077, 1249.920 202.937, 1251.261 201.596 C 1252.500 200.357, 1256.690 199.806, 1270.660 199.047 C 1282.056 198.427, 1288.824 198.424, 1289.439 199.039 C 1289.997 199.597, 1300.271 200.015, 1313.950 200.035 C 1326.903 200.054, 1348.975 200.682, 1363 201.432 C 1377.025 202.181, 1388.838 202.589, 1389.250 202.338 C 1389.662 202.087, 1390 196.471, 1390 189.857 L 1390 177.832 1395.910 183.166 C 1403.882 190.361, 1410.881 194.423, 1422.412 198.544 C 1450.230 208.486, 1481.507 203.533, 1505.045 185.456 C 1508.095 183.114, 1511.188 180.478, 1511.918 179.599 C 1512.648 178.720, 1513.640 178, 1514.122 178 C 1514.605 178, 1515 182.950, 1515 189 L 1515 200 1546.500 200 L 1578 200 1578 194.500 C 1578 191.475, 1578.168 189, 1578.374 189 C 1578.580 189, 1580.800 190.147, 1583.307 191.548 C 1590.403 195.514, 1599.373 198.748, 1607.795 200.377 C 1616.790 202.117, 1636.713 203.436, 1639.250 202.459 C 1640.864 201.838, 1641 199.392, 1641 170.893 L 1641 140 1634.500 140 C 1630.925 140, 1628 139.732, 1628 139.404 C 1628 139.077, 1628.923 137.512, 1630.052 135.928 C 1631.180 134.343, 1633.599 129.816, 1635.428 125.869 L 1638.753 118.691 1644.446 128.364 L 1650.139 138.037 1649.420 168.993 C 1648.804 195.547, 1648.908 200.027, 1650.149 200.504 C 1650.945 200.809, 1663.950 200.372, 1679.048 199.532 C 1694.147 198.692, 1707.963 198.003, 1709.750 198.002 L 1713 198 1713.113 179.250 C 1713.174 168.938, 1713.512 154.200, 1713.863 146.500 L 1714.500 132.500 1740.250 91.270 C 1754.412 68.594, 1766 49.865, 1766 49.650 C 1766 49.434, 1763.412 48.968, 1760.250 48.613 C 1753.330 47.836, 1698.161 43.035, 1695.924 43.014 C 1694.860 43.005, 1692.292 47.561, 1688.016 57.042 C 1684.534 64.766, 1681.370 70.728, 1680.985 70.292 C 1680.600 69.857, 1678.593 65.450, 1676.526 60.500 C 1668.561 41.428, 1669.566 42.985, 1665.306 43.128 C 1663.213 43.199, 1654.525 43.866, 1646 44.611 M 245.336 95.750 C 245.700 120.913, 245.998 150.613, 245.999 161.750 L 246 182 255.750 181.993 C 261.113 181.989, 268.609 181.692, 272.408 181.334 L 279.317 180.681 278.642 145.252 C 278.245 124.412, 278.337 109.962, 278.865 110.161 C 279.359 110.348, 287.768 121.300, 297.551 134.500 C 307.334 147.700, 319.094 163.563, 323.684 169.750 L 332.030 181 348.354 181 L 364.677 181 365.339 150.837 C 365.702 134.248, 366 104.959, 366 85.752 L 366 50.830 349.750 51.165 L 333.500 51.500 333 86.945 L 332.500 122.391 305.202 86.838 L 277.905 51.285 270.302 50.643 C 266.120 50.289, 258.643 50, 253.686 50 L 244.674 50 245.336 95.750 M 413 51.054 C 400.625 51.432, 385.821 51.800, 380.103 51.871 L 369.705 52 370.376 62.750 C 370.744 68.662, 371.327 76.355, 371.671 79.845 L 372.296 86.189 389.898 85.845 L 407.500 85.500 407.760 133.750 L 408.019 182 413.260 181.995 C 416.142 181.993, 423.563 181.699, 429.750 181.343 L 441 180.694 441 132.480 L 441 84.266 459.497 83.802 C 469.671 83.547, 478.235 83.098, 478.529 82.805 C 478.823 82.511, 478.520 75.009, 477.857 66.135 L 476.650 50 456.075 50.183 C 444.759 50.284, 425.375 50.676, 413 51.054 M 727.500 51.049 C 713.750 51.419, 697.822 51.784, 692.105 51.861 L 681.709 52 682.390 65.750 C 682.764 73.313, 683.340 81.018, 683.669 82.873 L 684.269 86.245 701.477 85.756 L 718.686 85.267 719.343 110.796 C 719.704 124.837, 720 146.668, 720 159.310 L 720 182.296 734.750 181.664 C 742.862 181.316, 750.288 181.024, 751.250 181.016 C 752.892 181.001, 753 178.018, 753 132.500 L 753 84 768.250 83.825 C 776.638 83.729, 785.244 83.765, 787.376 83.907 L 791.252 84.163 790.671 79.832 C 790.352 77.449, 789.811 70.550, 789.468 64.500 C 789.126 58.450, 788.625 52.712, 788.356 51.750 C 787.910 50.158, 786.264 50.017, 770.183 50.188 C 760.457 50.292, 741.250 50.679, 727.500 51.049 M 622.605 52.165 C 603.702 54.911, 588.659 67.459, 584.417 84.018 C 579.334 103.859, 592.014 124.307, 613.500 130.918 C 616.800 131.933, 623.775 133.094, 629 133.498 C 640.448 134.383, 644 135.892, 644 139.871 C 644 143.170, 641.931 145.295, 636.517 147.557 C 628.692 150.827, 613.527 146.792, 604.781 139.112 L 601.201 135.969 590.351 147.571 C 584.383 153.951, 579.365 159.754, 579.200 160.465 C 578.260 164.517, 600.221 177.420, 613.500 180.618 C 622.999 182.907, 636.535 182.676, 645.411 180.074 C 659.173 176.041, 671.432 166.025, 677.315 154.007 C 680.308 147.893, 680.500 146.836, 680.500 136.500 C 680.500 126.998, 680.193 124.925, 678.244 121.278 C 670.893 107.522, 660.169 102.076, 635.605 99.627 C 619.604 98.032, 616 96.721, 616 92.497 C 616 88.712, 622.727 85.638, 631 85.644 C 639.238 85.649, 646.689 87.879, 655.230 92.895 L 661.960 96.847 670.980 84.527 C 675.941 77.751, 680 71.710, 680 71.102 C 680 69.412, 668.733 61.491, 661.402 58.027 C 650.129 52.701, 634.829 50.389, 622.605 52.165 M 885.654 52.566 C 870.108 56.049, 860.179 61.688, 849.739 72.965 C 820.824 104.196, 831.047 157.509, 869.500 176.019 C 890.516 186.136, 914.386 183.519, 933.633 168.988 C 942.459 162.324, 950.304 150.974, 952.379 141.867 C 953.064 138.861, 953.894 139.308, 936.629 133.401 C 927.664 130.334, 925.615 129.929, 924.947 131.091 C 920.709 138.453, 914.117 144.056, 906.161 147.060 C 891.806 152.481, 874.663 144.407, 869.131 129.619 C 866.511 122.619, 866.252 110.550, 868.575 103.734 C 870.774 97.281, 876.836 90.754, 883.212 87.973 C 891.019 84.568, 902.533 84.631, 910 88.118 C 915.838 90.845, 921.204 95.650, 923.668 100.359 C 925.473 103.809, 926.262 103.726, 942.750 98.359 C 955.990 94.049, 955.936 94.158, 950.324 82.884 C 946.001 74.199, 936.362 63.999, 928 59.260 C 916.193 52.568, 898.282 49.737, 885.654 52.566 M 59.828 52.747 L 47.156 53.059 46.828 77.779 C 46.648 91.376, 46.652 120.387, 46.838 142.250 L 47.176 182 57.941 182 C 63.862 182, 71.444 181.714, 74.790 181.364 L 80.874 180.728 80.466 176.114 C 80.242 173.576, 79.831 163.512, 79.554 153.750 L 79.049 136 100.172 136 L 121.295 136 120.624 125.250 C 120.256 119.338, 119.677 111.688, 119.339 108.250 L 118.724 102 98.362 102 L 78 102 78 94.642 L 78 87.283 89.750 86.635 C 96.213 86.278, 108.362 85.938, 116.750 85.878 L 132 85.770 132 68.885 L 132 52 102.250 52.217 C 85.887 52.337, 66.798 52.575, 59.828 52.747 M 476.749 108.125 C 461.486 139.131, 448.998 164.831, 448.999 165.237 C 449 166.039, 450.601 166.766, 468.500 174.088 C 475.100 176.788, 480.989 178.998, 481.586 178.999 C 482.184 178.999, 485.053 173.150, 487.962 166 L 493.251 153 515.058 153 C 534.962 153, 536.911 153.153, 537.386 154.750 C 537.673 155.713, 539.327 161.900, 541.062 168.500 C 542.798 175.100, 544.316 180.610, 544.436 180.744 C 544.819 181.172, 576.472 173.834, 577.178 173.153 C 577.667 172.682, 539.676 54.611, 538.621 53.320 C 538.540 53.221, 530.829 52.827, 521.487 52.445 L 504.500 51.751 476.749 108.125 M 796.657 63.250 C 796.301 69.438, 796.007 98.462, 796.005 127.750 L 796 181 811.840 181 L 827.681 181 828.340 158.338 C 828.703 145.875, 829 116.850, 829 93.838 L 829 52 813.153 52 L 797.306 52 796.657 63.250 M 139.645 109.066 C 124.420 139.902, 112.223 165.552, 112.541 166.066 C 112.858 166.580, 113.524 167, 114.021 167 C 114.517 167, 121.497 169.736, 129.531 173.080 C 137.565 176.425, 144.670 178.948, 145.319 178.688 C 145.969 178.428, 148.712 172.533, 151.416 165.589 L 156.333 152.963 178.316 153.231 L 200.299 153.500 203.900 166.678 C 205.880 173.926, 207.784 180.135, 208.130 180.475 C 208.857 181.188, 239.073 174.173, 240.342 172.997 C 240.804 172.568, 232.351 145.393, 221.557 112.608 L 201.930 53 184.628 53 L 167.327 53 139.645 109.066 M 1442.388 58.011 C 1426.086 60.246, 1415.572 65.344, 1404.535 76.364 C 1395.303 85.582, 1390.471 93.820, 1386.831 106.545 C 1383.446 118.379, 1383.684 136.306, 1387.377 147.662 C 1395.742 173.384, 1420.599 190, 1450.713 190 C 1464.061 190, 1473.143 187.958, 1485 182.290 C 1501.774 174.272, 1514.892 158.405, 1519.134 141 C 1521.004 133.329, 1520.767 116.005, 1518.682 108 C 1512.493 84.230, 1494.523 65.865, 1471.800 60.088 C 1462.719 57.779, 1450.415 56.910, 1442.388 58.011 M 1637 59.518 C 1630.125 60.242, 1623.487 60.871, 1622.250 60.917 C 1621.013 60.963, 1620 61.418, 1620 61.928 C 1620 62.438, 1629.450 78.596, 1641 97.835 L 1662 132.814 1662 159.971 L 1662 187.128 1680.250 186.443 C 1690.287 186.067, 1698.884 185.406, 1699.353 184.976 C 1699.822 184.546, 1700.453 171.888, 1700.755 156.847 L 1701.304 129.500 1706.606 121 C 1709.522 116.325, 1719.087 101.025, 1727.861 87 L 1743.813 61.500 1739.656 60.869 C 1729.733 59.361, 1702.873 57.730, 1702.072 58.587 C 1701.602 59.089, 1696.787 69.512, 1691.373 81.750 C 1685.958 93.988, 1681.245 104, 1680.900 104 C 1680.555 104, 1675.962 93.763, 1670.694 81.250 L 1661.116 58.500 1655.308 58.351 C 1652.113 58.269, 1643.875 58.794, 1637 59.518 M 1145.750 59.742 L 1139 60.091 1139 123.546 L 1139 187 1157.500 187 L 1176 187 1176 168.500 C 1176 152.722, 1176.221 150, 1177.500 150 C 1178.325 150, 1179 150.623, 1179 151.384 C 1179 152.146, 1180.788 156.340, 1182.973 160.706 C 1191.783 178.308, 1206.783 187.209, 1230.193 188.725 L 1239 189.296 1239 171.848 C 1239 153.196, 1238.702 152.001, 1234.050 151.999 C 1230.665 151.998, 1220.017 146.866, 1217.500 144.022 L 1215.500 141.762 1217.991 140.131 C 1222.761 137.008, 1227.879 131.863, 1230.901 127.155 C 1245.149 104.950, 1238.169 77.430, 1215.181 65.177 C 1204.884 59.689, 1200.114 58.978, 1175.040 59.196 C 1162.643 59.304, 1149.463 59.549, 1145.750 59.742 M 1256.869 59.745 L 1246.238 60.065 1245.534 116.283 C 1245.147 147.202, 1244.981 175.843, 1245.165 179.929 L 1245.500 187.358 1252.500 187.176 C 1256.350 187.076, 1264.787 186.713, 1271.250 186.369 L 1283 185.743 1283.058 160.622 C 1283.089 146.805, 1283.437 133.700, 1283.830 131.500 C 1284.495 127.781, 1284.845 128.657, 1288.822 144 C 1291.175 153.075, 1294.766 166.575, 1296.801 174 L 1300.502 187.500 1311.480 187.500 L 1322.459 187.500 1329.454 157.308 C 1333.302 140.703, 1336.588 127.255, 1336.758 127.425 C 1336.928 127.594, 1337.463 141.105, 1337.949 157.449 C 1338.434 173.792, 1338.981 187.294, 1339.165 187.453 C 1339.349 187.612, 1347.931 188.059, 1358.235 188.446 L 1376.970 189.150 1377.235 126.490 C 1377.408 85.586, 1377.153 63.558, 1376.500 63.048 C 1375.950 62.619, 1365.510 61.964, 1353.300 61.593 L 1331.099 60.919 1330.129 64.709 C 1327.886 73.471, 1314.722 122.930, 1313.329 127.824 C 1312.496 130.752, 1311.599 132.932, 1311.335 132.668 C 1310.897 132.231, 1306.262 115.772, 1294.882 74.250 L 1290.703 59 1279.101 59.212 C 1272.721 59.329, 1262.716 59.569, 1256.869 59.745 M 1534.750 59.742 L 1528 60.091 1528 123.546 L 1528 187 1546.500 187 L 1565 187 1565 168.500 C 1565 152.722, 1565.221 150, 1566.500 150 C 1567.325 150, 1568 150.623, 1568 151.384 C 1568 152.146, 1569.788 156.340, 1571.973 160.706 C 1580.713 178.167, 1595.589 187.058, 1618.750 188.661 L 1628 189.302 1628 171.851 C 1628 153.196, 1627.702 152.001, 1623.050 151.999 C 1619.665 151.998, 1609.017 146.866, 1606.500 144.022 L 1604.500 141.762 1606.991 140.131 C 1621.144 130.864, 1629.581 112.546, 1627.020 96.645 C 1624.901 83.484, 1616.303 71.638, 1604.181 65.177 C 1593.884 59.689, 1589.114 58.978, 1564.040 59.196 C 1551.643 59.304, 1538.463 59.549, 1534.750 59.742 M 1051.494 62.250 C 1051.038 63.537, 1046.135 81.841, 1033.884 128 C 1030.016 142.575, 1025.312 160.090, 1023.432 166.923 C 1021.551 173.756, 1020.229 179.562, 1020.492 179.826 C 1021.150 180.483, 1053.197 187.136, 1053.629 186.705 C 1053.818 186.515, 1055.433 179.304, 1057.217 170.680 L 1060.460 155 1074.569 155 L 1088.677 155 1091.452 170.750 C 1092.978 179.412, 1094.390 186.778, 1094.590 187.118 C 1094.924 187.684, 1126.221 182.679, 1130.250 181.414 C 1131.213 181.112, 1132 180.309, 1132 179.628 C 1132 178.656, 1110.365 103.239, 1099.905 67.750 L 1097.915 61 1074.926 61 C 1057.438 61, 1051.831 61.299, 1051.494 62.250 M 1073.709 95 C 1069.203 115.063, 1067.280 124.946, 1067.782 125.448 C 1068.620 126.287, 1081.817 126.107, 1082.336 125.250 C 1082.682 124.678, 1078.158 99.857, 1075.728 89 C 1075.544 88.175, 1074.635 90.875, 1073.709 95 M 182 89.125 C 182 89.377, 180.159 94.065, 177.910 99.542 C 175.660 105.019, 172.966 111.638, 171.924 114.250 L 170.029 119 180.441 119 L 190.853 119 187.012 104.419 C 183.810 92.265, 182 86.741, 182 89.125 M 518.689 89.694 C 518.289 90.341, 513.162 102.952, 507.283 117.750 C 506.905 118.700, 509.209 119, 516.893 119 C 522.930 119, 527 118.599, 527 118.005 C 527 116.826, 519.921 89.644, 519.494 89.183 C 519.332 89.009, 518.970 89.239, 518.689 89.694 M 1441.860 94.568 C 1433.699 97.081, 1424.330 107.495, 1422.391 116.208 C 1421.573 119.886, 1421.932 130.032, 1423.022 134.084 C 1428.748 155.345, 1457.383 162.011, 1473.945 145.938 C 1480.688 139.393, 1482.485 134.888, 1482.493 124.500 C 1482.499 116.542, 1482.164 114.837, 1479.598 109.772 C 1476.002 102.676, 1471.317 98.320, 1464.076 95.342 C 1457.582 92.670, 1448.996 92.371, 1441.860 94.568 M 1176 104.506 L 1176 113.263 1183.250 112.790 C 1192.124 112.210, 1198.651 109.239, 1199.631 105.333 C 1201.038 99.726, 1196.161 96.827, 1184.250 96.190 L 1176 95.749 1176 104.506 M 1565 104.506 L 1565 113.263 1572.250 112.790 C 1581.124 112.210, 1587.651 109.239, 1588.631 105.333 C 1590.038 99.726, 1585.161 96.827, 1573.250 96.190 L 1565 95.749 1565 104.506 M 1445.233 103.123 C 1440.257 104.559, 1433.424 111.687, 1431.930 117 C 1429.883 124.279, 1429.855 125.254, 1431.546 130.500 C 1433.814 137.539, 1439.858 143.527, 1446.240 145.058 C 1452.553 146.572, 1458.950 145.692, 1463.737 142.651 C 1468.827 139.416, 1470.671 137.184, 1472.474 132.075 C 1478.673 114.505, 1463.109 97.964, 1445.233 103.123" stroke="none" fill="#e1e1e0" fill-rule="evenodd"/><path d="M 232.918 72.200 L 232.837 107.500 221.725 74.386 L 210.613 41.272 201.653 40.636 C 196.725 40.286, 185.325 40, 176.321 40 L 159.949 40 152.562 55.250 L 145.175 70.500 145.088 54.679 L 145 38.858 132.250 39.393 C 125.237 39.687, 100.263 40.229, 76.750 40.598 L 34 41.268 34 117.134 L 34 193 63.553 193 L 93.107 193 92.401 170.500 L 91.696 148 99.356 148 L 107.017 148 101.508 158.983 C 98.479 165.024, 96 170.537, 96.001 171.233 C 96.001 171.937, 104.816 176.149, 115.823 180.706 C 145.711 193.078, 152.315 195.543, 152.716 194.475 C 152.917 193.939, 155.651 187.200, 158.791 179.500 L 164.500 165.500 177.704 165.221 L 190.907 164.943 192.021 169.221 C 197.944 191.975, 199.219 195.756, 200.842 195.381 C 201.754 195.169, 209.001 193.422, 216.947 191.498 C 224.894 189.574, 231.981 188, 232.697 188 C 233.527 188, 234 189.310, 234 191.604 L 234 195.208 241.750 194.623 C 246.012 194.301, 258.829 193.750, 270.232 193.397 L 290.964 192.757 291.232 169.661 L 291.500 146.564 308.732 169.782 L 325.963 193 351.320 193 L 376.677 193 377.337 160.750 C 377.700 143.012, 377.997 121.638, 377.998 113.250 L 378 98 386.339 98 L 394.678 98 395.339 126.663 C 395.703 142.427, 396 164.318, 396 175.310 L 396 195.295 406.250 194.673 C 411.887 194.331, 423.925 193.788, 433 193.466 C 455.174 192.680, 454 193.042, 454 186.981 C 454 184.241, 454.351 182, 454.780 182 C 455.209 182, 462.884 184.936, 471.835 188.525 C 480.786 192.114, 488.462 194.833, 488.892 194.566 C 489.323 194.300, 492.312 187.539, 495.535 179.541 L 501.394 165 514.546 165 L 527.698 165 530.486 175.750 C 532.020 181.662, 533.885 188.572, 534.632 191.104 L 535.991 195.708 561.813 189.563 L 587.636 183.419 594.568 186.691 C 610.385 194.159, 631.130 196.545, 646 192.606 C 674.460 185.066, 693.223 162.755, 693.150 136.538 C 693.112 122.916, 689.573 113.658, 680.898 104.486 C 678.204 101.637, 676 99.013, 676 98.653 C 676 98.294, 682.917 98, 691.371 98 L 706.741 98 707.181 145.977 C 707.422 172.364, 707.864 194.197, 708.162 194.496 C 708.461 194.794, 721.371 194.486, 736.852 193.812 L 765 192.586 765 144.293 L 765 96 774.656 96 L 784.311 96 783.740 144.500 L 783.169 193 811.445 193 L 839.721 193 840.352 187.750 C 840.699 184.862, 840.987 179.648, 840.991 176.161 L 841 169.823 847.378 175.661 C 871.820 198.034, 908.448 200.397, 937.055 181.448 C 952.666 171.107, 961.793 157.306, 965.298 138.739 L 966.715 131.238 947.607 124.480 C 937.098 120.763, 927.898 117.407, 927.163 117.023 C 925.843 116.332, 933.218 113.807, 956.877 106.849 C 963.134 105.008, 968.461 102.964, 968.713 102.304 C 969.509 100.232, 963.991 82.808, 960.225 75.500 C 955.058 65.471, 942.053 52.704, 931.942 47.732 C 920.536 42.125, 910.544 39.823, 897.500 39.799 C 879.252 39.766, 863.744 45.182, 849.445 56.583 L 842.500 62.120 842.217 51.060 L 841.934 40 821.327 40 C 805.045 40, 800.487 39.711, 799.610 38.625 C 798.686 37.480, 793.219 37.380, 767 38.028 C 749.675 38.457, 720.538 39.138, 702.250 39.543 L 669 40.278 669 43.639 C 669 45.488, 668.739 47, 668.420 47 C 668.101 47, 664.015 45.650, 659.340 44 C 647.885 39.957, 634.708 38.452, 623.647 39.924 C 607.552 42.066, 596.405 47.417, 585.855 58.065 C 566.791 77.309, 566.022 106.040, 584.031 126.245 L 588.887 131.694 584.559 135.942 L 580.230 140.191 563.784 90.845 L 547.337 41.500 542.919 40.824 C 540.488 40.452, 529.168 40.115, 517.763 40.074 L 497.025 40 493.311 47.250 L 489.597 54.500 488.873 50 C 488.474 47.525, 488.115 43.813, 488.074 41.750 L 488 38 473.750 38.021 C 465.913 38.032, 441.543 38.479, 419.595 39.014 C 390.678 39.720, 379.324 39.684, 378.361 38.885 C 377.063 37.807, 353.412 38.164, 330.250 39.609 L 321 40.187 321 63.308 C 321 83.589, 320.821 86.249, 319.539 84.964 C 318.735 84.159, 310.495 73.600, 301.228 61.500 L 284.379 39.500 273.939 38.879 C 268.198 38.538, 256.637 37.953, 248.250 37.579 L 233 36.900 232.918 72.200 M 245.203 115.382 C 245.367 151.931, 245.779 182.113, 246.120 182.454 C 246.460 182.794, 253.992 182.762, 262.857 182.383 L 278.975 181.694 279.238 146.302 L 279.500 110.910 305.855 146.455 L 332.209 182 349.105 182 L 366 182 366.003 136.250 C 366.004 111.087, 366.303 81.314, 366.667 70.086 L 367.328 49.673 350.497 50.337 C 341.240 50.702, 333.545 51.122, 333.396 51.270 C 333.248 51.419, 333.018 64.356, 332.886 80.020 C 332.754 95.684, 332.388 111.165, 332.073 114.423 L 331.500 120.345 305 85.686 C 289.263 65.104, 277.688 50.844, 276.500 50.576 C 275.400 50.327, 267.842 49.855, 259.703 49.526 L 244.907 48.929 245.203 115.382 M 448.500 49.723 C 443.550 49.894, 423.876 50.388, 404.780 50.820 C 385.684 51.253, 369.862 51.807, 369.619 52.053 C 369.376 52.299, 369.700 60.116, 370.339 69.424 L 371.500 86.348 389.240 86.099 L 406.981 85.851 407.240 134.176 L 407.500 182.500 421.500 182.224 C 429.200 182.073, 436.962 181.715, 438.750 181.429 L 442 180.909 442 133.103 L 442 85.296 450.250 84.654 C 454.788 84.301, 463.037 84.009, 468.583 84.006 C 474.129 84.003, 478.870 83.797, 479.119 83.548 C 479.367 83.299, 479.020 75.987, 478.347 67.298 C 477.674 58.609, 477.095 50.938, 477.061 50.250 C 477 48.990, 472.219 48.902, 448.500 49.723 M 733 50.195 C 711.275 50.659, 690.654 51.294, 687.176 51.607 L 680.852 52.175 681.561 62.338 C 681.951 67.927, 682.547 75.650, 682.885 79.500 L 683.500 86.500 701.250 86.129 L 719 85.758 719 134.457 L 719 183.155 735.250 182.503 C 744.188 182.144, 752.127 181.648, 752.893 181.402 C 754.071 181.022, 754.173 173.587, 753.554 133.134 L 752.822 85.316 764.161 84.662 C 770.398 84.303, 779.054 84.007, 783.397 84.005 L 791.295 84 790.615 73.250 C 790.242 67.338, 789.661 59.462, 789.324 55.750 L 788.713 49 780.606 49.175 C 776.148 49.272, 754.725 49.731, 733 50.195 M 79.500 51.979 L 46.500 52.500 46.243 117.250 L 45.985 182 63.528 182 L 81.071 182 80.384 159.659 L 79.698 137.317 86.599 136.666 C 90.395 136.307, 99.971 136.011, 107.879 136.007 L 122.258 136 121.666 130.250 C 121.340 127.088, 120.808 120.225, 120.483 115 C 120.158 109.775, 119.666 104.420, 119.389 103.101 L 118.887 100.702 99.066 101.253 L 79.245 101.805 78.623 97.263 C 78.280 94.765, 78 91.434, 78 89.860 L 78 87 88.840 87 C 94.802 87, 107.177 86.704, 116.340 86.343 L 133 85.686 133 68.343 L 133 51 122.750 51.229 C 117.112 51.356, 97.650 51.693, 79.500 51.979 M 617.634 52.586 C 604.654 55.728, 591.747 65.707, 586.290 76.819 C 583.775 81.941, 583.500 83.533, 583.500 93 C 583.500 102.644, 583.741 103.975, 586.450 109.328 C 590.169 116.673, 599.419 125.365, 607.582 129.185 C 613.358 131.888, 615.423 132.288, 635.707 134.625 C 645.047 135.701, 646.741 142.051, 638.772 146.116 C 635.210 147.934, 633.427 148.178, 626.966 147.735 C 618.362 147.145, 611.470 144.226, 605.106 138.477 L 601.285 135.024 591.454 145.762 C 586.047 151.668, 580.760 157.480, 579.705 158.678 C 577.788 160.855, 577.789 160.858, 582.643 165.457 C 588.673 171.169, 602.918 178.370, 613.410 181.010 C 627.954 184.669, 644.032 182.865, 656.478 176.178 C 662.822 172.770, 674.075 161.779, 676.883 156.249 C 687.182 135.968, 681.075 114.582, 662.280 105.116 C 655.958 101.931, 648.308 100.224, 634.783 98.980 C 620.434 97.660, 615.703 96.094, 616.178 92.821 C 616.934 87.614, 629.005 84.667, 640.012 87.003 C 643.347 87.710, 649.465 90.232, 653.693 92.641 C 657.900 95.039, 661.602 96.995, 661.921 96.990 C 662.537 96.979, 680.275 72.675, 680.786 71.141 C 681.249 69.753, 669.604 61.391, 662.461 57.981 C 648.644 51.387, 631.241 49.293, 617.634 52.586 M 881 53.307 C 865.427 57.345, 852.340 66.703, 843.345 80.234 C 823.280 110.415, 831.603 151.573, 861.926 172.123 C 880.586 184.770, 902.214 186.199, 923 176.159 C 936.611 169.585, 950.803 153.180, 952.624 141.917 L 953.176 138.500 939.202 133.875 L 925.228 129.250 923.075 133.080 C 915.639 146.311, 895.430 152.130, 882.743 144.695 C 877.204 141.449, 872.348 136.015, 869.659 130.051 C 866.598 123.263, 866.644 108.237, 869.745 101.945 C 874.654 91.983, 882.568 86.995, 894.708 86.209 C 907.195 85.401, 916.433 89.737, 922.288 99.157 C 923.944 101.821, 925.570 104, 925.901 104 C 926.232 104, 932.802 102.035, 940.501 99.634 C 954.419 95.292, 954.499 95.250, 954.278 92.384 C 954.156 90.798, 952.405 86.158, 950.386 82.074 C 938.558 58.137, 909.245 45.985, 881 53.307 M 139.709 107.866 C 124.518 138.592, 111.957 164.307, 111.795 165.010 C 111.624 165.750, 113.817 167.223, 117 168.506 C 120.025 169.725, 127.642 172.821, 133.926 175.385 C 140.211 177.949, 145.668 179.699, 146.053 179.274 C 146.439 178.848, 149.025 172.875, 151.800 166 L 156.846 153.500 177.936 153.230 L 199.025 152.960 199.977 155.230 C 200.501 156.479, 202.351 162.787, 204.089 169.250 C 206.866 179.573, 207.508 181, 209.375 181 C 211.373 181, 241.104 174.081, 241.842 173.444 C 242.030 173.282, 233.109 145.891, 222.017 112.575 L 201.849 52 184.588 52 L 167.328 52 139.709 107.866 M 478.360 103.750 C 464.293 132.213, 451.707 157.878, 450.389 160.784 L 447.995 166.069 452.747 168.110 C 473.161 176.875, 482.289 180.150, 483.019 178.969 C 483.445 178.280, 485.978 172.156, 488.647 165.360 L 493.500 153.005 515.015 153.003 L 536.531 153 538.897 162.250 C 540.198 167.338, 541.912 173.690, 542.705 176.366 L 544.146 181.232 547.954 180.623 C 557.785 179.051, 578.005 173.700, 578.046 172.659 C 578.071 172.021, 569.200 144.613, 558.333 111.750 L 538.574 52 521.255 52 L 503.936 52 478.360 103.750 M 795.999 75.750 C 795.998 88.813, 795.700 118.063, 795.336 140.750 L 794.675 182 811.837 182 L 829 182 829.002 150.750 C 829.002 133.563, 829.300 104.313, 829.663 85.750 L 830.324 52 813.162 52 L 796 52 795.999 75.750 M 1438.519 59.068 C 1419.382 62.266, 1401.744 75.519, 1393.070 93.218 C 1386.978 105.646, 1385.490 112.340, 1385.559 127 C 1385.610 137.905, 1385.966 140.521, 1388.350 147.500 C 1393.661 163.048, 1403.784 174.641, 1418.461 181.984 C 1430.245 187.879, 1437.318 189.470, 1451.500 189.417 C 1465.563 189.364, 1472.438 187.788, 1485 181.739 C 1501.526 173.781, 1514.817 157.021, 1518.496 139.500 C 1521.348 125.913, 1519.589 109.539, 1513.834 96.114 C 1507.604 81.578, 1491.710 66.968, 1476.568 61.856 C 1465.853 58.238, 1450.300 57.099, 1438.519 59.068 M 1638.250 59.797 C 1628.763 60.634, 1621 61.695, 1621 62.154 C 1621 62.614, 1630.450 78.712, 1642 97.929 L 1663 132.869 1663 160.002 C 1663 185.365, 1663.114 187.102, 1664.750 186.639 C 1665.713 186.366, 1673.748 185.837, 1682.606 185.464 L 1698.712 184.785 1699.351 175.143 C 1699.702 169.839, 1699.992 157.625, 1699.996 148 L 1700.002 130.500 1709.071 116 C 1714.059 108.025, 1719.346 99.542, 1720.820 97.149 C 1722.294 94.756, 1727.651 86.206, 1732.725 78.149 C 1737.799 70.092, 1741.962 63.036, 1741.975 62.468 C 1742.004 61.279, 1703.854 57.693, 1702.898 58.795 C 1702.561 59.183, 1699.562 65.575, 1696.234 73 C 1692.905 80.425, 1688.363 90.550, 1686.141 95.500 C 1683.920 100.450, 1681.567 104.500, 1680.913 104.500 C 1680.259 104.500, 1676.168 95.950, 1671.822 85.500 C 1660.288 57.764, 1660.397 57.977, 1657.763 58.137 C 1656.518 58.213, 1647.737 58.959, 1638.250 59.797 M 1153.500 60.043 C 1147.450 60.429, 1141.825 60.803, 1141 60.873 C 1139.681 60.984, 1139.532 68.595, 1139.765 124 L 1140.029 187 1157.765 187.001 L 1175.500 187.002 1175.241 169.251 C 1175.099 159.488, 1175.360 150.922, 1175.821 150.216 C 1177.351 147.874, 1179.795 150.076, 1181.488 155.322 C 1183.933 162.901, 1187.125 167.882, 1193.243 173.668 C 1202.544 182.465, 1213.858 186.959, 1230.750 188.568 L 1238 189.258 1238 171.261 L 1238 153.263 1234.181 152.751 C 1229.030 152.060, 1219.283 147.175, 1216.828 144.054 L 1214.836 141.521 1217.168 140.014 C 1231.360 130.840, 1240.128 111.542, 1237.216 95.888 C 1235.605 87.225, 1231.681 79.721, 1225.586 73.649 C 1214.571 62.674, 1202.614 58.910, 1179.590 59.170 C 1171.291 59.264, 1159.550 59.657, 1153.500 60.043 M 1264.086 60.146 C 1255.058 60.613, 1247.556 61.110, 1247.415 61.252 C 1247.273 61.394, 1246.828 89.775, 1246.426 124.322 L 1245.696 187.135 1260.598 186.454 C 1268.794 186.080, 1277.075 185.467, 1279 185.092 L 1282.500 184.411 1282.765 154.706 C 1282.911 138.368, 1283.404 125, 1283.862 125 C 1284.320 125, 1287.274 134.787, 1290.428 146.750 C 1293.581 158.713, 1297.332 172.662, 1298.762 177.750 L 1301.363 187 1311.599 187 L 1321.834 187 1324.917 173.750 C 1333.852 135.351, 1336.424 125, 1337.030 125 C 1338.071 125, 1339 144.376, 1339 166.097 C 1339 176.979, 1339.392 186.124, 1339.870 186.420 C 1340.710 186.939, 1375.222 189.161, 1375.568 188.718 C 1375.662 188.598, 1376.056 160.311, 1376.444 125.859 L 1377.149 63.218 1361.324 62.600 C 1352.621 62.261, 1342.464 61.822, 1338.753 61.625 L 1332.005 61.267 1330.939 65.384 C 1319.633 109.022, 1312.534 134.010, 1311.537 133.678 C 1311.007 133.502, 1308.637 126.415, 1306.271 117.929 C 1303.905 109.443, 1299.209 92.713, 1295.836 80.750 L 1289.703 59 1285.102 59.148 C 1282.571 59.230, 1273.114 59.679, 1264.086 60.146 M 1542.500 60.043 C 1536.450 60.429, 1530.825 60.803, 1530 60.873 C 1528.681 60.984, 1528.532 68.595, 1528.765 124 L 1529.029 187 1546.765 187.001 L 1564.500 187.002 1564.241 169.251 C 1564.099 159.488, 1564.360 150.922, 1564.821 150.216 C 1566.351 147.874, 1568.795 150.076, 1570.488 155.322 C 1572.933 162.901, 1576.125 167.882, 1582.243 173.668 C 1591.544 182.465, 1602.858 186.959, 1619.750 188.568 L 1627 189.258 1627 171.261 L 1627 153.263 1623.181 152.751 C 1618.030 152.060, 1608.283 147.175, 1605.828 144.054 L 1603.836 141.521 1606.168 140.014 C 1616.125 133.577, 1624.097 121.304, 1626.169 109.221 C 1630.023 86.742, 1614.327 65.683, 1589.797 60.421 C 1583.079 58.980, 1561.811 58.810, 1542.500 60.043 M 1052.675 61.731 C 1052.418 62.154, 1050.782 67.900, 1049.038 74.500 C 1039.027 112.391, 1036.621 121.427, 1031.462 140.500 C 1023.920 168.387, 1021.058 179.399, 1021.300 179.593 C 1021.668 179.887, 1051.486 186.007, 1052.534 186.003 C 1053.103 186.002, 1054.822 179.588, 1056.354 171.750 C 1057.886 163.912, 1059.368 156.701, 1059.646 155.724 C 1060.105 154.109, 1061.484 153.973, 1074.768 154.224 L 1089.385 154.500 1090.642 161.500 C 1095.813 190.291, 1094.645 187.879, 1102.500 185.991 C 1104.700 185.462, 1111.871 184.098, 1118.435 182.959 C 1124.999 181.821, 1130.703 180.683, 1131.111 180.431 C 1131.519 180.179, 1131.399 178.517, 1130.844 176.737 C 1130.290 174.956, 1128.338 168.325, 1126.508 162 C 1119.896 139.158, 1112.029 112.055, 1105.463 89.500 C 1101.780 76.850, 1098.450 65.375, 1098.062 64 L 1097.357 61.500 1075.249 61.231 C 1063.090 61.083, 1052.932 61.308, 1052.675 61.731 M 1074.627 88.750 C 1072.349 96.601, 1067 121.462, 1067 124.202 C 1067 125.780, 1067.960 126, 1074.833 126 C 1079.142 126, 1082.876 125.791, 1083.131 125.536 C 1083.821 124.846, 1076.659 87, 1075.838 87 C 1075.451 87, 1074.906 87.787, 1074.627 88.750 M 176.718 103.705 L 171.193 117.500 179.847 118.038 C 184.606 118.334, 188.829 118.320, 189.231 118.007 C 189.829 117.542, 183.474 91.192, 182.526 90.205 C 182.370 90.042, 179.757 96.117, 176.718 103.705 M 518.137 92.247 C 517.540 93.758, 514.999 100.005, 512.491 106.129 C 509.983 112.253, 508.059 117.377, 508.215 117.515 C 508.446 117.718, 527.095 118.756, 526.961 118.558 C 526.939 118.526, 525.189 111.975, 523.072 104 C 519.567 90.797, 519.126 89.746, 518.137 92.247 M 1440.424 93.997 C 1433.138 96.886, 1427.576 102.080, 1424.044 109.292 C 1418.630 120.347, 1419.028 130.438, 1425.287 140.838 C 1432.497 152.817, 1446.164 157.983, 1461.501 154.526 C 1466.359 153.431, 1475.109 146.874, 1478.667 141.663 C 1482.953 135.385, 1484.283 130.186, 1483.820 121.529 C 1483.197 109.896, 1477.142 100.702, 1466.500 95.230 C 1459.579 91.671, 1447.707 91.110, 1440.424 93.997 M 893 94.658 C 882.964 98.678, 880.296 100.915, 877.084 108 C 874.405 113.909, 874.488 119.359, 877.351 125.507 C 880.324 131.890, 885.505 136.430, 892.213 138.529 C 897.314 140.125, 897.701 140.108, 903.190 138.043 C 910.081 135.449, 914.003 131.267, 916.989 123.332 C 918.938 118.153, 919.055 116.920, 918.037 112.324 C 916.474 105.270, 911.960 99.312, 906.274 96.797 C 901.373 94.629, 895.453 93.675, 893 94.658 M 1175.750 95.552 C 1174.701 96.645, 1174.839 111.197, 1175.914 112.895 C 1177.227 114.969, 1188.731 113.793, 1194.515 110.993 C 1202.307 107.221, 1203.187 100.890, 1196.372 97.640 C 1192.463 95.776, 1177.034 94.214, 1175.750 95.552 M 1564.660 96.445 C 1563.693 98.963, 1563.884 111.268, 1564.914 112.895 C 1566.227 114.969, 1577.731 113.793, 1583.515 110.993 C 1591.307 107.221, 1592.187 100.890, 1585.372 97.640 C 1583.300 96.652, 1578.091 95.627, 1573.500 95.303 C 1566.362 94.799, 1565.235 94.944, 1564.660 96.445 M 453 111 C 453 119.250, 453.345 126, 453.766 126 C 454.434 126, 469 97.785, 469 96.491 C 469 96.221, 465.400 96, 461 96 L 453 96 453 111" stroke="none" fill="#070e16" fill-rule="evenodd"/><path d="M 213 18.047 C 213 19.156, 212.378 20.301, 211.619 20.593 C 210.859 20.884, 198.371 20.681, 183.869 20.141 C 158.701 19.203, 52.416 20.187, 25.250 21.608 L 14 22.197 14 117.599 L 14 213 64 213 L 114 213 114 207.500 C 114 204.475, 114.167 202, 114.371 202 C 114.576 202, 125.375 206.275, 138.370 211.500 C 151.365 216.725, 162.389 221, 162.867 221 C 163.346 221, 166.326 214.588, 169.490 206.750 C 172.654 198.912, 175.593 192.118, 176.021 191.650 C 176.810 190.789, 178.026 194.459, 182.180 210.250 C 184.005 217.187, 184.857 219, 186.295 219 C 187.293 219, 193.790 217.642, 200.735 215.983 C 210.161 213.730, 213.547 213.267, 214.097 214.156 C 214.665 215.076, 225.718 214.996, 262.584 213.805 C 305.594 212.416, 310.460 212.091, 311.598 210.534 C 312.779 208.920, 312.948 208.944, 314.172 210.903 C 315.454 212.957, 316.098 213, 345.741 213 C 373.101 213, 376 213.157, 376 214.638 C 376 216.072, 377.021 216.198, 384.250 215.650 C 388.788 215.306, 406 214.530, 422.500 213.927 C 439 213.323, 457.450 212.499, 463.500 212.097 L 474.500 211.365 486.440 216.183 C 493.007 218.832, 498.857 220.998, 499.440 220.995 C 500.023 220.993, 503.200 214.249, 506.500 206.010 C 509.800 197.771, 512.770 191.023, 513.099 191.015 C 513.429 191.007, 515.409 197.300, 517.500 205 C 520.722 216.868, 521.596 219, 523.236 219 C 524.301 219, 537.395 216.033, 552.336 212.407 C 567.276 208.781, 581.300 205.786, 583.500 205.752 C 585.700 205.718, 592 207.293, 597.500 209.252 C 624.577 218.899, 655.609 215.216, 678.966 199.583 L 686.721 194.392 687.311 204.813 C 687.636 210.545, 688.069 215.402, 688.273 215.606 C 688.478 215.811, 696.937 215.503, 707.073 214.921 C 717.208 214.340, 755.762 213.616, 792.750 213.313 C 855.377 212.799, 860 212.643, 860 211.047 C 860 208.236, 860.914 208.078, 866.360 209.952 C 880.440 214.796, 906.308 215.347, 920.500 211.105 C 950.075 202.266, 973.132 181.324, 981.880 155.357 C 982.991 152.057, 985.070 142.448, 986.499 134.004 C 987.928 125.560, 989.327 118.280, 989.608 117.826 C 989.888 117.371, 990.952 117, 991.971 117 C 993.667 117, 993.398 115.360, 988.823 97.750 C 983.228 76.213, 978.717 65.409, 970.936 54.913 C 962.706 43.812, 952.946 35.933, 938.356 28.610 C 918.609 18.700, 890.934 16.653, 869.250 23.499 L 862 25.788 862 22.894 L 862 20 840 20 C 820.320 20, 818 19.828, 818 18.368 C 818 16.889, 816.009 16.798, 796.750 17.403 C 719.917 19.815, 651.645 20.929, 644.318 19.891 C 634.471 18.497, 619.849 19.365, 609.491 21.961 C 598.976 24.595, 585.034 31.673, 576.648 38.633 C 572.937 41.714, 569.759 44.069, 569.587 43.867 C 569.414 43.665, 567.622 38.507, 565.605 32.404 L 561.937 21.308 547.719 20.658 C 539.898 20.300, 527.560 20.006, 520.300 20.004 C 509.746 20.001, 506.935 19.706, 506.279 18.534 C 505.562 17.253, 498.808 17.212, 452.644 18.205 C 411.290 19.095, 399.666 19.078, 399.078 18.127 C 398.495 17.184, 392.766 17.135, 373.414 17.910 C 359.711 18.459, 338.825 19.178, 327 19.507 C 315.175 19.836, 304.488 20.315, 303.250 20.572 C 301.487 20.937, 300.993 21.737, 300.966 24.269 L 300.933 27.500 297.912 23.803 C 294.175 19.230, 295.419 19.399, 255.500 18.021 C 238.450 17.432, 221.912 16.743, 218.750 16.490 C 213.499 16.071, 213 16.206, 213 18.047 M 218 24 C 218 25.947, 217.361 25.998, 193.750 25.916 C 180.412 25.869, 166.836 25.500, 163.580 25.094 C 157.775 24.372, 68.278 25.442, 36.250 26.617 L 20 27.213 20 117.606 L 20 208 64 208 L 108 208 108 201 C 108 197.150, 108.407 194, 108.904 194 C 109.401 194, 120.761 198.500, 134.149 204 C 147.537 209.500, 159.006 214, 159.636 214 C 160.622 214, 167.821 197.796, 172.853 184.250 C 174.160 180.730, 174.882 180, 177.058 180 C 179.609 180, 179.811 180.473, 184.091 196.500 C 187.322 208.602, 188.897 212.994, 189.998 212.977 C 190.824 212.964, 197.550 211.417, 204.945 209.538 C 212.340 207.660, 218.753 206.347, 219.195 206.621 C 219.638 206.894, 220 207.766, 220 208.559 C 220 209.467, 221.016 209.995, 222.750 209.987 C 228.756 209.959, 282.239 208.040, 293.710 207.441 L 305.919 206.803 306.210 199.184 L 306.500 191.565 312.500 199.750 L 318.500 207.934 349.750 207.967 C 376.396 207.995, 381 208.214, 381 209.453 C 381 210.586, 382.046 210.802, 385.750 210.433 C 391.496 209.862, 455.678 207, 462.748 207 C 466.880 207, 467.857 206.656, 468.276 205.053 C 468.750 203.239, 469.709 203.478, 482.319 208.553 C 489.763 211.549, 496.254 214, 496.744 214 C 497.234 214, 500.695 206.325, 504.435 196.945 C 510.913 180.695, 511.355 179.904, 513.794 180.195 C 516.206 180.482, 516.608 181.425, 520.731 196.471 C 523.138 205.255, 525.248 212.582, 525.420 212.753 C 525.776 213.109, 533.500 211.387, 564.244 204.098 C 585.278 199.111, 586.092 198.996, 589.145 200.575 C 593.149 202.645, 601.466 205.329, 610.716 207.534 C 616.411 208.891, 620.944 209.157, 632.216 208.795 C 644.895 208.387, 647.491 207.991, 655.320 205.263 C 666.453 201.384, 678.519 194.160, 686.238 186.750 C 689.532 183.588, 692.402 181, 692.614 181 C 692.826 181, 693 187.743, 693 195.985 L 693 210.969 698.750 210.472 C 718.067 208.801, 756.249 207.876, 802.250 207.964 L 855 208.065 855 204.033 C 855 201.815, 855.394 200, 855.876 200 C 856.357 200, 859.170 201.065, 862.126 202.366 C 874.087 207.632, 878.582 208.468, 895 208.477 C 913.099 208.488, 918.571 207.334, 932.798 200.503 C 954.656 190.010, 970.662 172.769, 976.900 153 C 979.421 145.011, 983.334 123.314, 982.600 121.400 C 982.304 120.630, 981.486 119.980, 980.781 119.955 C 980.077 119.930, 978.150 119.317, 976.500 118.592 L 973.500 117.274 979.500 115.526 C 982.800 114.565, 985.871 113.435, 986.324 113.015 C 987.572 111.859, 979.277 81.522, 975.426 73.160 C 965.308 51.185, 947.341 35.722, 923.307 28.307 C 915.161 25.794, 913.187 25.589, 897 25.574 L 879.500 25.558 869.500 29.104 C 864 31.054, 858.736 32.993, 857.802 33.412 C 856.334 34.071, 856.131 33.586, 856.302 29.837 L 856.500 25.500 834.750 25.230 C 815.892 24.997, 813 24.755, 813 23.412 C 813 22.097, 811.825 21.948, 805.250 22.429 C 786.405 23.807, 657.349 25.766, 632.500 25.051 C 622.559 24.765, 619.057 25.085, 612.092 26.915 C 595.907 31.166, 582.760 38.839, 573.112 49.664 C 570.317 52.799, 567.861 55.170, 567.652 54.932 C 567.444 54.694, 565.167 48.139, 562.592 40.364 L 557.910 26.228 530.361 25.845 C 506.783 25.517, 502.644 25.236, 501.656 23.892 C 500.625 22.493, 496.810 22.406, 466.500 23.088 C 447.800 23.509, 423.613 24.135, 412.750 24.479 C 395.259 25.033, 393 24.927, 393 23.546 C 393 22.235, 391.922 22.070, 386.250 22.510 C 378.118 23.142, 324.350 25, 314.209 25 L 307 25 307 34 C 307 38.950, 306.663 42.988, 306.250 42.973 C 305.837 42.958, 302.460 38.935, 298.745 34.033 C 290.734 23.465, 294.801 24.537, 257 23.030 C 219.170 21.522, 218 21.552, 218 24 M 1632.500 40.058 C 1608.296 42.202, 1599.647 42.640, 1597 41.856 C 1591.125 40.116, 1562.623 39.683, 1536.552 40.937 C 1522.957 41.591, 1511.197 42.371, 1510.417 42.670 C 1509.399 43.061, 1509 45.013, 1509 49.607 C 1509 53.123, 1508.744 56, 1508.430 56 C 1508.117 56, 1505.871 54.631, 1503.440 52.958 C 1496.256 48.016, 1483.013 42.106, 1475.500 40.490 C 1449.763 34.952, 1422.829 39.173, 1404.207 51.660 C 1400.647 54.047, 1397.570 56, 1397.368 56 C 1397.165 56, 1397 53.340, 1397 50.090 L 1397 44.180 1388.750 43.601 C 1380.110 42.995, 1327.450 40.985, 1320.447 40.995 L 1316.394 41 1314.068 50.646 C 1312.605 56.714, 1311.454 59.774, 1310.965 58.896 C 1310.537 58.128, 1309.028 53.495, 1307.610 48.600 C 1306.193 43.705, 1304.859 39.526, 1304.647 39.313 C 1304.434 39.101, 1287.892 39.619, 1267.886 40.464 C 1247.881 41.309, 1230.497 42, 1229.256 42 C 1227.344 42, 1227 42.534, 1227 45.500 C 1227 47.425, 1226.757 49, 1226.460 49 C 1226.163 49, 1224.251 48.151, 1222.210 47.113 C 1212.884 42.369, 1205.054 40.781, 1188.385 40.256 C 1173.109 39.774, 1124.410 41.522, 1121.449 42.658 C 1120.408 43.057, 1119.994 45.961, 1119.782 54.345 L 1119.500 65.500 1115.950 53.500 L 1112.399 41.500 1075.033 41.500 L 1037.667 41.500 1036.907 44 C 1036.489 45.375, 1032.711 59.550, 1028.512 75.500 C 1024.313 91.450, 1018.902 111.925, 1016.488 121 C 1014.073 130.075, 1008.693 150.295, 1004.532 165.933 C 1000.371 181.572, 997.312 194.664, 997.733 195.028 C 998.950 196.078, 1065.473 209.248, 1067.545 208.849 C 1069.031 208.563, 1069.772 206.659, 1071.190 199.495 C 1073.900 185.794, 1074.017 185.409, 1074.975 186.959 C 1075.436 187.705, 1076.624 193.194, 1077.616 199.157 C 1078.608 205.121, 1079.662 209.994, 1079.960 209.986 C 1080.257 209.978, 1089.388 208.474, 1100.250 206.644 C 1115.786 204.026, 1120 203.602, 1120 204.658 C 1120 205.757, 1126.796 206, 1157.500 206 L 1195 206 1195 203 C 1195 201.350, 1195.372 200, 1195.828 200 C 1196.283 200, 1199.336 201.089, 1202.612 202.421 C 1212.430 206.410, 1223.520 208, 1241.527 208 C 1253.337 208, 1257.944 207.669, 1258.234 206.798 C 1258.703 205.391, 1283.921 203.910, 1285.450 205.199 C 1285.973 205.640, 1298.573 206.021, 1313.450 206.047 C 1328.328 206.073, 1352.650 206.688, 1367.500 207.415 C 1382.350 208.142, 1394.838 208.544, 1395.250 208.309 C 1395.662 208.074, 1396 204.309, 1396 199.941 C 1396 195.573, 1396.205 192, 1396.456 192 C 1396.706 192, 1398.619 193.161, 1400.706 194.579 C 1406.373 198.432, 1418.133 203.879, 1425.754 206.182 C 1436.207 209.341, 1459.381 209.832, 1472.283 207.167 C 1482.360 205.085, 1502.987 196.184, 1505.872 192.671 C 1508.342 189.664, 1509 190.890, 1509 198.500 L 1509 206 1546.500 206 L 1584 206 1584 202.883 C 1584 199.383, 1583.221 199.350, 1594.522 203.317 C 1605.189 207.060, 1614.713 208.191, 1632 207.768 C 1649.533 207.339, 1718.300 203.879, 1718.876 203.397 C 1719.082 203.224, 1719.476 187.876, 1719.751 169.291 L 1720.251 135.500 1741.250 101.581 C 1752.799 82.926, 1765.528 62.451, 1769.537 56.081 C 1773.545 49.711, 1776.713 44.387, 1776.577 44.248 C 1776.304 43.970, 1694.932 36.992, 1692.205 37.013 C 1691.027 37.022, 1689.476 39.463, 1687.191 44.903 C 1681.842 57.633, 1682.006 57.601, 1677.412 46.838 L 1673.426 37.500 1668.963 37.362 C 1666.508 37.286, 1650.100 38.499, 1632.500 40.058 M 1630.606 45.801 C 1604.637 48.008, 1599.753 48.180, 1593.406 47.114 C 1583.032 45.371, 1534.991 45.689, 1519.250 47.605 L 1515 48.123 1515 59.160 L 1515 70.198 1509.250 65.317 C 1498.280 56.006, 1491.989 52.189, 1480.771 48.037 C 1466.022 42.578, 1437.870 42.633, 1423.500 48.148 C 1412.751 52.274, 1401.454 59.605, 1394.500 66.968 L 1391.500 70.144 1391 59.822 L 1390.500 49.500 1380 48.850 C 1374.225 48.493, 1358.517 48.043, 1345.093 47.850 L 1320.687 47.500 1319.908 50 C 1319.480 51.375, 1317.450 59.172, 1315.397 67.327 C 1313.286 75.713, 1311.354 81.577, 1310.948 80.827 C 1310.554 80.097, 1308.051 71.709, 1305.386 62.187 L 1300.542 44.874 1283.521 45.556 C 1274.159 45.931, 1259.075 46.522, 1250 46.869 L 1233.500 47.500 1233.205 54.216 L 1232.910 60.932 1228.123 57.493 C 1225.490 55.602, 1220.223 52.733, 1216.418 51.119 C 1204.391 46.016, 1200.073 45.622, 1164.124 46.353 C 1146.181 46.718, 1130.263 47.290, 1128.750 47.625 L 1126 48.233 1125.921 77.367 C 1125.860 99.898, 1125.591 105.820, 1124.734 103.500 C 1124.124 101.850, 1120.180 88.575, 1115.968 74 L 1108.311 47.500 1075.187 47.237 L 1042.064 46.973 1040.550 52.237 C 1039.717 55.131, 1037.504 63.350, 1035.631 70.500 C 1033.758 77.650, 1029.925 92.163, 1027.113 102.750 C 1004.685 187.194, 1004.123 189.419, 1004.988 190.338 C 1006.246 191.676, 1063.315 203.085, 1064.220 202.180 C 1064.670 201.730, 1066.480 194.080, 1068.241 185.181 L 1071.443 169 1074.533 169 L 1077.623 169 1080.790 185.645 C 1082.531 194.799, 1084.186 202.519, 1084.467 202.800 C 1084.969 203.302, 1094.473 201.835, 1114.818 198.114 L 1125.136 196.227 1126.043 198.613 L 1126.950 201 1156.225 200.986 C 1172.326 200.979, 1186.513 200.701, 1187.750 200.370 C 1189.694 199.849, 1190 199.102, 1190 194.883 C 1190 192.198, 1190.257 190, 1190.572 190 C 1190.886 190, 1193.024 191.099, 1195.322 192.441 C 1197.620 193.784, 1203.720 196.294, 1208.878 198.018 C 1216.726 200.643, 1220.864 201.335, 1234.256 202.262 C 1248.733 203.265, 1250.370 203.214, 1251.456 201.729 C 1252.489 200.317, 1255.300 200.067, 1271.578 199.941 C 1296.173 199.750, 1373.401 201.499, 1382.750 202.459 L 1390 203.203 1390 190.522 L 1390 177.841 1396.737 183.921 C 1416.092 201.390, 1445.978 207.948, 1474 200.876 C 1484.808 198.148, 1500.458 190.087, 1507.739 183.498 C 1511.081 180.474, 1514.067 178, 1514.375 178 C 1514.683 178, 1515.062 183.062, 1515.217 189.250 L 1515.500 200.500 1545 200.780 C 1561.225 200.934, 1575.513 200.813, 1576.750 200.511 C 1578.709 200.033, 1579 199.317, 1579 194.981 C 1579 192.241, 1579.298 190, 1579.662 190 C 1580.026 190, 1582.235 191.120, 1584.570 192.488 C 1593.782 197.887, 1606.108 201.052, 1622.465 202.218 C 1630.874 202.818, 1638.484 203.028, 1639.377 202.686 C 1640.826 202.130, 1641 198.745, 1641 171.138 C 1641 136.528, 1641.583 139, 1633.418 139 C 1630.988 139, 1629 138.765, 1629 138.479 C 1629 138.192, 1630.160 136.204, 1631.578 134.062 C 1632.996 131.919, 1635.182 127.642, 1636.436 124.556 L 1638.716 118.945 1643.858 127.549 L 1649 136.153 1649 168.720 L 1649 201.288 1664.750 200.610 C 1685.264 199.727, 1711.163 198.047, 1712.750 197.496 C 1713.714 197.162, 1714 189.945, 1714 165.966 C 1714 144.651, 1714.358 134.181, 1715.139 132.684 C 1715.765 131.483, 1726.950 113.400, 1739.994 92.500 C 1765.724 51.272, 1766.425 50.091, 1765.618 49.285 C 1764.956 48.623, 1698.245 42.846, 1695.681 43.229 C 1694.393 43.421, 1692.067 47.558, 1687.708 57.410 L 1681.553 71.321 1679.885 67.410 C 1678.968 65.260, 1676.284 58.888, 1673.921 53.250 L 1669.624 43 1665.062 43.130 C 1662.553 43.202, 1647.048 44.404, 1630.606 45.801 M 366.395 63.500 C 366.396 71.200, 366.553 74.218, 366.743 70.206 C 366.934 66.195, 366.932 59.895, 366.741 56.206 C 366.549 52.518, 366.393 55.800, 366.395 63.500 M 121.685 51.745 C 131.283 52.050, 131.895 52.196, 132.299 54.284 C 132.658 56.142, 132.750 56.056, 132.864 53.750 L 133 51 122.250 51.211 L 111.500 51.422 121.685 51.745 M 829.411 80 C 829.411 89.625, 829.561 93.563, 829.745 88.750 C 829.928 83.937, 829.928 76.062, 829.745 71.250 C 829.561 66.438, 829.411 70.375, 829.411 80 M 441.458 85.250 C 441.195 85.938, 441.101 107.875, 441.250 134 L 441.520 181.500 441.760 133.300 L 442 85.100 447.750 84.739 L 453.500 84.378 447.719 84.189 C 443.866 84.063, 441.777 84.417, 441.458 85.250 M 906 117.035 C 906 136.380, 906.065 137.035, 907.892 136.058 C 911.124 134.328, 914.756 129.269, 916.922 123.478 C 919.408 116.835, 919.411 116.748, 917.462 110.184 C 915.948 105.087, 909.626 97, 907.155 97 C 906.320 97, 906 102.554, 906 117.035 M 93.750 101.737 C 96.638 101.939, 101.362 101.939, 104.250 101.737 C 107.138 101.535, 104.775 101.370, 99 101.370 C 93.225 101.370, 90.862 101.535, 93.750 101.737 M 1376.437 142 C 1376.437 156.575, 1376.577 162.537, 1376.747 155.250 C 1376.918 147.963, 1376.918 136.037, 1376.747 128.750 C 1376.577 121.463, 1376.437 127.425, 1376.437 142 M 795.389 139.500 C 795.390 146.650, 795.550 149.444, 795.742 145.708 C 795.935 141.973, 795.934 136.123, 795.739 132.708 C 795.545 129.294, 795.387 132.350, 795.389 139.500 M 753.232 154.180 L 753 180.861 750.750 181.294 L 748.500 181.728 750.781 181.864 C 752.036 181.939, 753.281 181.430, 753.549 180.734 C 753.816 180.037, 753.906 167.775, 753.750 153.484 L 753.465 127.500 753.232 154.180 M 395.415 154 C 395.415 164.175, 395.564 168.338, 395.745 163.250 C 395.927 158.162, 395.927 149.837, 395.745 144.750 C 395.564 139.662, 395.415 143.825, 395.415 154 M 245.407 160 C 245.407 169.075, 245.559 172.787, 245.744 168.250 C 245.929 163.713, 245.929 156.287, 245.744 151.750 C 245.559 147.213, 245.407 150.925, 245.407 160 M 407.466 163 L 407.500 182.500 409.765 182.633 C 411.607 182.741, 411.658 182.682, 410.037 182.316 C 408.143 181.889, 408.027 180.902, 407.737 162.683 L 407.432 143.500 407.466 163 M 783.365 158.500 C 783.368 164, 783.536 166.122, 783.738 163.216 C 783.941 160.311, 783.939 155.811, 783.734 153.216 C 783.528 150.622, 783.363 153, 783.365 158.500 M 377.374 160.500 C 377.376 166.550, 377.541 168.896, 377.740 165.713 C 377.939 162.531, 377.937 157.581, 377.736 154.713 C 377.535 151.846, 377.372 154.450, 377.374 160.500 M 1175.413 168.500 C 1175.414 178.400, 1175.564 182.315, 1175.746 177.199 C 1175.928 172.084, 1175.927 163.984, 1175.744 159.199 C 1175.561 154.415, 1175.412 158.600, 1175.413 168.500 M 1564.413 168.500 C 1564.414 178.400, 1564.564 182.315, 1564.746 177.199 C 1564.928 172.084, 1564.927 163.984, 1564.744 159.199 C 1564.561 154.415, 1564.412 158.600, 1564.413 168.500 M 803.250 181.745 C 808.063 181.928, 815.938 181.928, 820.750 181.745 C 825.563 181.561, 821.625 181.411, 812 181.411 C 802.375 181.411, 798.438 181.561, 803.250 181.745 M 840.150 189.235 L 840 192.969 811.250 193.251 L 782.500 193.532 811.281 193.766 C 842.627 194.021, 841.605 194.209, 840.724 188.334 C 840.366 185.941, 840.276 186.081, 840.150 189.235 M 48.812 193.748 C 57.233 193.916, 70.733 193.915, 78.812 193.748 C 86.890 193.580, 80 193.443, 63.500 193.443 C 47 193.444, 40.390 193.581, 48.812 193.748" stroke="none" fill="#2868b4" fill-rule="evenodd"/><path d="M 218 23.963 L 218 26.095 161.750 25.798 C 130.813 25.634, 86.263 25.890, 62.750 26.368 L 20 27.235 20 117.618 L 20 208 63.958 208 L 107.916 208 108.208 200.633 L 108.500 193.266 121.500 198.488 C 128.650 201.359, 140.101 206.025, 146.947 208.855 C 153.793 211.685, 159.643 213.999, 159.947 213.997 C 160.251 213.995, 163.650 206.128, 167.500 196.513 C 173.604 181.269, 174.783 179.030, 176.715 179.016 C 179.633 178.995, 180.070 179.999, 184.536 197 C 186.631 204.975, 188.625 211.834, 188.966 212.243 C 189.307 212.652, 195.828 211.414, 203.456 209.493 C 219.589 205.430, 220 205.391, 220 207.905 C 220 209.651, 220.649 209.776, 227.750 209.395 C 239.386 208.771, 292.602 206.999, 299.710 207 L 305.919 207 306.210 198.933 L 306.500 190.866 312.840 199.433 L 319.179 208 350.006 208 C 371.489 208, 380.944 208.333, 381.199 209.097 C 381.462 209.887, 391.363 209.742, 416.532 208.578 C 465.229 206.328, 468 206.103, 468 204.410 C 468 203.635, 468.358 203, 468.795 203 C 469.232 203, 475.634 205.462, 483.023 208.472 C 490.411 211.482, 496.767 213.619, 497.147 213.222 C 497.527 212.825, 500.856 204.938, 504.544 195.696 C 510.965 179.604, 511.360 178.904, 513.853 179.196 C 516.316 179.484, 516.682 180.324, 520.645 194.813 C 526.057 214.594, 525.249 212.965, 529.184 212.040 C 531.008 211.611, 544.525 208.419, 559.223 204.947 L 585.946 198.633 590.723 200.855 C 599.779 205.069, 612.938 208.122, 624.500 208.693 C 648.306 209.868, 669.102 202.302, 686.077 186.288 L 693 179.758 693 194.879 L 693 210 697.250 209.991 C 699.587 209.986, 710.050 209.478, 720.500 208.862 C 731.447 208.217, 763.976 207.826, 797.250 207.940 L 855 208.137 855 203.647 L 855 199.157 863.324 202.513 C 875.322 207.351, 887.217 209.376, 899.500 208.669 C 921.705 207.393, 939.950 199.481, 956.365 184.011 C 969.274 171.844, 975.621 159.937, 979.390 140.813 C 983.680 119.040, 983.834 121.438, 978.021 119.507 C 975.251 118.587, 973.240 117.421, 973.551 116.917 C 973.863 116.413, 974.585 116, 975.155 116 C 975.726 116, 978.578 115.306, 981.494 114.459 L 986.796 112.917 982.823 97.209 C 974.515 64.359, 961.430 46.234, 937.500 34.429 C 916.002 23.823, 890.491 22.207, 868.134 30.035 C 863.385 31.698, 858.712 33.323, 857.750 33.646 C 856.272 34.142, 856 33.594, 856 30.117 L 856 26 834.500 26 C 815.175 26, 813 25.833, 813 24.348 C 813 22.837, 810.797 22.753, 787.250 23.365 C 722.588 25.046, 665.476 26.159, 654.500 25.952 C 624.961 25.396, 618.520 25.612, 611.500 27.398 C 596.444 31.227, 578.955 42.021, 571.292 52.214 C 569.756 54.256, 568.258 55.944, 567.963 55.964 C 567.667 55.984, 565.209 49.250, 562.500 41 L 557.575 26 529.287 26 C 504.810 26, 501 25.798, 501 24.500 C 501 22.666, 505.497 22.694, 443.653 24.140 C 403.921 25.069, 393.651 25.053, 393.037 24.059 C 392.425 23.069, 385.803 23.036, 360.883 23.895 C 343.622 24.491, 324.454 25.251, 318.286 25.585 L 307.073 26.193 306.786 35.316 L 306.500 44.439 299.589 35.470 C 295.789 30.536, 292.414 26.194, 292.089 25.820 C 291.765 25.445, 279.800 24.661, 265.500 24.076 C 251.200 23.492, 234.662 22.748, 228.750 22.423 C 218.260 21.846, 218 21.883, 218 23.963 M 224.963 43.607 L 224.926 58.500 220.815 45.884 L 216.704 33.268 209.201 32.634 C 205.075 32.285, 191.214 32, 178.399 32 C 157.264 32, 155.005 32.163, 154.080 33.750 C 153.170 35.313, 153.058 35.260, 153.030 33.253 L 153 31.006 118.250 31.623 C 99.137 31.962, 70.675 32.524, 55 32.870 L 26.500 33.500 26.500 117.500 L 26.500 201.500 63.750 201.762 L 101 202.024 101 192.566 L 101 183.108 113.250 188.147 C 130.022 195.046, 152.042 204.032, 154.653 205.043 C 156.666 205.823, 157.243 204.810, 163.540 189.438 L 170.275 173 177.473 173 L 184.671 173 188.861 188.692 C 191.166 197.323, 193.241 204.574, 193.473 204.806 C 193.705 205.038, 200.850 203.602, 209.350 201.614 C 217.851 199.626, 225.075 198, 225.403 198 C 225.731 198, 226 199.195, 226 200.655 L 226 203.311 240.250 202.675 C 248.088 202.325, 264.501 201.734, 276.725 201.363 L 298.950 200.687 299.225 185.768 L 299.500 170.850 311 186.410 L 322.500 201.969 353.191 201.985 C 374.652 201.995, 384.089 201.666, 384.569 200.888 C 384.947 200.276, 385.536 178.564, 385.878 152.638 C 386.453 109.043, 386.547 107.154, 387.123 127.500 C 387.466 139.600, 387.804 161.768, 387.873 176.762 L 388 204.024 391.750 203.531 C 393.813 203.260, 408.100 202.570, 423.500 201.999 C 438.900 201.427, 453.837 200.714, 456.694 200.415 C 461.725 199.887, 461.897 199.766, 462.194 196.535 L 462.500 193.200 477 199.157 C 484.975 202.434, 491.925 205.201, 492.443 205.307 C 493.242 205.470, 499.588 191.459, 505.285 176.955 L 506.839 173 514.174 173 L 521.510 173 524.371 184.021 C 530.057 205.928, 529.742 205.210, 533.343 204.461 C 535.079 204.100, 547.721 201.120, 561.435 197.839 L 586.369 191.874 592.935 194.860 C 602.014 198.990, 608.328 200.683, 619.858 202.080 C 637.740 204.248, 655.509 200.045, 670.657 190.066 C 682.011 182.586, 689.973 173.937, 694.998 163.625 L 698.836 155.750 699.168 179.293 C 699.351 192.242, 699.725 203.010, 700 203.222 C 700.398 203.530, 771.827 200.463, 772.750 200.099 C 772.888 200.044, 773 178.400, 773 152 C 773 108.118, 773.141 104, 774.645 104 C 776.155 104, 776.258 108.012, 775.895 152.750 L 775.500 201.500 812 201.500 L 848.500 201.500 848.581 196 C 848.626 192.975, 848.739 189.926, 848.831 189.224 C 848.941 188.392, 851.558 189.352, 856.352 191.984 C 880.450 205.209, 905.367 206.085, 929.691 194.561 C 953.386 183.336, 968.153 165.171, 972.954 141.343 C 976.310 124.684, 976.823 125.857, 964.250 121.449 C 953.424 117.654, 950.105 116, 953.318 116 C 955.339 116, 977.190 109.096, 978.169 108.148 C 979.389 106.966, 972.879 83.633, 969.060 75.500 C 962.399 61.314, 951.509 49.465, 938 41.703 C 931.244 37.821, 916.609 33.267, 906.682 31.957 C 890.839 29.867, 872.826 33.257, 858.173 41.086 C 854.143 43.238, 850.656 45, 850.423 45 C 850.190 45, 850 42.075, 850 38.500 L 850 32 828.500 32 C 809.457 32, 807 31.817, 807 30.400 C 807 28.970, 805.105 28.863, 789.250 29.398 C 779.488 29.726, 751.025 30.454, 726 31.015 C 662.815 32.430, 660.919 32.513, 660.050 33.919 C 659.474 34.852, 657.819 34.725, 652.900 33.370 C 643.897 30.890, 621.972 30.870, 613 33.332 C 593.520 38.679, 576.416 52.054, 568.791 67.904 L 566.500 72.666 559.920 53.083 L 553.341 33.500 543.420 32.867 C 537.964 32.520, 524.837 32.182, 514.250 32.117 C 497.858 32.017, 495 31.777, 495 30.500 C 495 28.725, 500.210 28.737, 436 30.367 C 398.846 31.311, 387.266 31.324, 386.500 30.423 C 385.734 29.523, 377.772 29.556, 352.500 30.564 C 334.350 31.287, 318.049 31.906, 316.275 31.939 L 313.051 32 312.775 47.494 L 312.500 62.988 300.289 47.136 L 288.077 31.283 273.289 30.650 C 265.155 30.302, 250.963 29.724, 241.750 29.365 L 225 28.713 224.963 43.607 M 1645.500 32.548 C 1632.300 33.807, 1617.225 35.243, 1612 35.738 C 1604.471 36.452, 1601.152 36.318, 1596 35.095 C 1587.523 33.081, 1552.233 33.251, 1525 35.435 C 1514.275 36.296, 1504.938 37, 1504.250 37 C 1503.457 37, 1503 38.470, 1503 41.017 L 1503 45.034 1497.750 42.373 C 1483.981 35.394, 1468.967 31.929, 1452.500 31.929 C 1436.159 31.929, 1421.046 35.344, 1408.048 41.976 C 1403 44.551, 1403 44.551, 1403 41.104 L 1403 38.208 1388.750 37.592 C 1371.644 36.852, 1323.828 35.050, 1315.713 34.839 C 1312.530 34.757, 1309.691 34.309, 1309.404 33.844 C 1308.729 32.753, 1295.731 32.792, 1275 33.949 C 1265.925 34.455, 1250.063 35.184, 1239.750 35.568 C 1223.081 36.189, 1221 36.454, 1221 37.958 C 1221 39.491, 1220.347 39.437, 1214.026 37.376 C 1199.105 32.512, 1180.875 32.072, 1136 35.494 C 1125.222 36.315, 1118.071 36.473, 1117.384 35.903 C 1116.728 35.359, 1098.998 35.085, 1074.384 35.239 L 1032.500 35.500 1030.370 43.500 C 1029.199 47.900, 1025.905 60.275, 1023.049 71 C 1015.484 99.417, 1009.433 122.274, 1004.517 141 C 999.877 158.677, 990.461 194.041, 989.406 197.750 C 989.055 198.988, 989.075 200, 989.452 200 C 989.829 200, 997.194 201.533, 1005.818 203.406 C 1014.443 205.280, 1026.450 207.772, 1032.500 208.944 C 1038.550 210.116, 1049.655 212.408, 1057.178 214.037 C 1064.700 215.667, 1072.460 217, 1074.421 217 C 1076.382 217, 1083.952 215.825, 1091.243 214.389 L 1104.500 211.778 1152.346 211.949 C 1195.073 212.102, 1200.316 211.950, 1201.356 210.528 C 1202.269 209.279, 1203.162 209.138, 1205.510 209.873 C 1214.739 212.762, 1224.209 213.939, 1243.250 214.564 C 1263.487 215.227, 1264 215.195, 1264 213.266 C 1264 211.322, 1264.671 211.294, 1302.250 211.688 C 1323.287 211.909, 1352.552 212.744, 1367.281 213.545 C 1382.011 214.345, 1395.849 215, 1398.031 215 L 1402 215 1402 209.015 L 1402 203.030 1407.750 205.928 C 1421.523 212.868, 1438.952 216.493, 1454.820 215.716 C 1471.623 214.894, 1484.963 211.097, 1502.250 202.219 C 1502.662 202.007, 1503 204.121, 1503 206.917 L 1503 212 1546.140 212 C 1582.619 212, 1589.451 211.776, 1590.390 210.552 C 1591.352 209.297, 1592.568 209.374, 1599.500 211.125 C 1610.634 213.937, 1651.708 216.093, 1653.037 213.935 C 1653.749 212.780, 1660.817 212.207, 1689.211 211 L 1724.500 209.500 1725.367 173.131 L 1726.234 136.761 1743.722 108.631 C 1753.341 93.159, 1763.200 77.350, 1765.631 73.500 C 1779.206 52.004, 1786.792 39.459, 1786.434 39.101 C 1786.212 38.878, 1776.685 37.890, 1765.265 36.905 C 1753.844 35.920, 1734.600 34.195, 1722.500 33.072 C 1710.400 31.949, 1697.293 30.751, 1693.373 30.409 L 1686.246 29.788 1684.475 34.427 C 1683.501 36.978, 1682.339 39.290, 1681.894 39.566 C 1681.448 39.841, 1680.110 37.801, 1678.919 35.033 C 1676.344 29.048, 1679.627 29.292, 1645.500 32.548 M 1638.500 39.124 C 1608.763 42.008, 1602.562 42.120, 1585.500 40.086 C 1578.593 39.262, 1530.575 40.448, 1516 41.803 L 1508.500 42.500 1508.205 49.201 L 1507.911 55.901 1500.469 51.043 C 1472.298 32.653, 1430.053 33.043, 1402.576 51.948 C 1400.136 53.627, 1397.906 55, 1397.620 55 C 1397.334 55, 1396.965 52.412, 1396.800 49.250 L 1396.500 43.500 1380 42.828 C 1370.925 42.459, 1352.733 42.009, 1339.572 41.828 L 1315.645 41.500 1313.569 49.170 C 1312.427 53.389, 1311.206 57.127, 1310.856 57.478 C 1310.505 57.828, 1309.198 54.253, 1307.951 49.532 C 1306.704 44.812, 1305.192 40.369, 1304.592 39.659 C 1303.700 38.605, 1298.001 38.606, 1273.500 39.663 C 1257 40.375, 1239.675 41.304, 1235 41.729 L 1226.500 42.500 1226.188 45.732 C 1225.891 48.805, 1225.768 48.895, 1223.688 47.547 C 1219.414 44.777, 1205.962 40.968, 1197.295 40.072 C 1188.692 39.184, 1143.084 40.306, 1127 41.802 L 1119.500 42.500 1119 52.484 L 1118.500 62.469 1115.462 51.984 L 1112.424 41.500 1074.526 41.500 L 1036.627 41.500 1034.946 48 C 1034.021 51.575, 1030.693 64.175, 1027.550 76 C 1024.407 87.825, 1020.103 104.025, 1017.985 112 C 1015.868 119.975, 1012.103 134.150, 1009.619 143.500 C 997.669 188.481, 996.166 194.546, 996.809 195.170 C 997.189 195.539, 1013.417 199.077, 1032.872 203.032 C 1058.637 208.270, 1068.440 209.906, 1068.965 209.057 C 1069.361 208.416, 1070.510 203.393, 1071.519 197.896 C 1072.528 192.398, 1073.649 187.717, 1074.010 187.494 C 1074.372 187.270, 1075.505 192.243, 1076.529 198.544 C 1078.144 208.483, 1078.642 210, 1080.292 210 C 1081.337 210, 1090.354 208.625, 1100.328 206.945 C 1112.254 204.936, 1118.584 204.251, 1118.815 204.945 C 1119.053 205.660, 1131.370 206, 1157.083 206 L 1195 206 1195 203.500 C 1195 200.472, 1195.958 200.415, 1202.855 203.036 C 1212.280 206.619, 1222.080 208.146, 1239.403 208.731 C 1255.225 209.266, 1256.394 209.181, 1257.696 207.401 C 1259.026 205.583, 1260.693 205.513, 1295.794 205.793 C 1315.982 205.954, 1345.550 206.738, 1361.500 207.535 C 1377.450 208.332, 1391.737 208.988, 1393.250 208.992 L 1396 209 1396 200.534 L 1396 192.068 1400.388 195.029 C 1426.045 212.345, 1462.733 214.746, 1491.500 200.992 C 1495.900 198.888, 1501.207 196.005, 1503.294 194.584 C 1505.381 193.163, 1507.294 192, 1507.544 192 C 1507.795 192, 1508 195.150, 1508 199 L 1508 206 1546 206 L 1584 206 1584 203.500 C 1584 200.472, 1584.958 200.415, 1591.855 203.036 C 1594.800 204.156, 1600.425 205.765, 1604.355 206.612 C 1613.545 208.592, 1643.229 209.717, 1646.287 208.201 C 1647.552 207.574, 1663.474 206.429, 1683.441 205.528 C 1702.658 204.661, 1718.633 203.701, 1718.941 203.393 C 1719.248 203.086, 1719.659 187.686, 1719.853 169.172 L 1720.205 135.510 1736.019 110.005 C 1744.716 95.977, 1757.458 75.500, 1764.334 64.501 C 1771.210 53.502, 1776.665 44.331, 1776.456 44.123 C 1776.083 43.749, 1705.239 37.323, 1695.500 36.779 L 1690.500 36.500 1685.851 46 L 1681.201 55.500 1679.456 51.500 C 1678.496 49.300, 1676.696 45.025, 1675.454 42 C 1673.669 37.650, 1672.707 36.470, 1670.849 36.358 C 1669.557 36.279, 1655 37.524, 1638.500 39.124 M 1246.439 88 C 1246.439 103.125, 1246.578 109.313, 1246.748 101.750 C 1246.917 94.188, 1246.917 81.813, 1246.748 74.250 C 1246.578 66.688, 1246.439 72.875, 1246.439 88 M 1139.471 124.500 C 1139.471 159.150, 1139.596 173.180, 1139.750 155.678 C 1139.903 138.175, 1139.903 109.825, 1139.749 92.678 C 1139.596 75.530, 1139.471 89.850, 1139.471 124.500 M 1528.471 124.500 C 1528.471 159.150, 1528.596 173.180, 1528.750 155.678 C 1528.903 138.175, 1528.903 109.825, 1528.749 92.678 C 1528.596 75.530, 1528.471 89.850, 1528.471 124.500 M 893.641 94.692 C 893.260 95.073, 891.967 95.535, 890.768 95.718 C 889.568 95.901, 888.237 96.602, 887.809 97.275 C 887.381 97.949, 887.024 106.882, 887.015 117.128 C 887.003 132.479, 887.264 135.974, 888.500 137 C 889.325 137.685, 890 137.910, 890 137.500 C 890 137.090, 890.675 137.315, 891.500 138 C 892.325 138.685, 893 138.875, 893 138.422 C 893 137.970, 893.485 138.085, 894.077 138.677 C 894.800 139.400, 896.362 139.453, 898.827 138.838 C 900.847 138.334, 903.175 137.784, 904 137.616 C 906.276 137.153, 906.788 96.061, 904.520 95.875 C 901.681 95.642, 901.167 95.501, 900.417 94.750 C 899.474 93.807, 894.568 93.766, 893.641 94.692 M 695.343 110.750 C 696.650 113.362, 697.972 116.175, 698.281 117 C 698.590 117.825, 698.878 115.688, 698.921 112.250 L 699 106 695.983 106 L 692.966 106 695.343 110.750" stroke="none" fill="#b63232" fill-rule="evenodd"/><path d="M 1670.500 24.050 C 1666.650 24.444, 1649.653 25.953, 1632.730 27.402 C 1602.772 29.966, 1601.702 29.992, 1592.230 28.372 C 1584.223 27.002, 1578.515 26.817, 1560 27.325 C 1538.817 27.907, 1513.044 29.338, 1501.250 30.588 C 1497.478 30.987, 1496 31.569, 1496 32.655 C 1496 33.487, 1495.438 33.931, 1494.750 33.644 C 1490.557 31.889, 1476.512 27.931, 1471 26.950 C 1467.425 26.314, 1458.425 25.817, 1451 25.845 C 1436.779 25.899, 1428.024 27.267, 1415.918 31.327 C 1412.113 32.603, 1409 33.313, 1409 32.903 C 1409 31.745, 1399.657 31.153, 1355.556 29.512 C 1333.036 28.674, 1314.361 27.595, 1314.056 27.113 C 1313.741 26.616, 1291.531 27.032, 1262.753 28.072 C 1217.701 29.702, 1211.080 29.745, 1203.753 28.455 C 1194.196 26.773, 1174.548 26.624, 1151.500 28.058 C 1142.700 28.606, 1111.088 29.027, 1081.250 28.993 C 1051.412 28.959, 1027 29.217, 1027 29.565 C 1027 29.914, 1025.817 34.542, 1024.370 39.850 C 1021.793 49.306, 1016.254 70.090, 1007.541 103 C 992.635 159.297, 986.135 183.692, 982.436 197.216 C 981.426 200.911, 980.841 204.174, 981.136 204.470 C 981.432 204.765, 990.409 206.794, 1001.087 208.979 C 1011.764 211.165, 1031.525 215.289, 1045 218.144 C 1058.475 220.999, 1071.525 223.304, 1074 223.267 C 1076.475 223.230, 1083.450 222.253, 1089.500 221.097 C 1099.835 219.122, 1103.871 218.992, 1156.260 218.944 C 1186.928 218.917, 1212.492 219.186, 1213.068 219.542 C 1213.645 219.899, 1226.690 220.441, 1242.058 220.747 C 1265.628 221.217, 1270 221.085, 1269.999 219.902 C 1269.999 218.724, 1275.064 218.538, 1301.749 218.737 C 1332.168 218.963, 1377.624 220.330, 1398.250 221.639 L 1408 222.258 1408 217.664 L 1408 213.071 1412.750 215.109 C 1426.908 221.183, 1452.506 223.633, 1469.947 220.584 C 1477.972 219.181, 1487.015 216.552, 1494.250 213.520 C 1495.701 212.911, 1496 213.323, 1496 215.926 L 1496 219.067 1550.750 219.028 C 1581.001 219.007, 1608.632 219.425, 1612.500 219.962 C 1621.885 221.266, 1658.732 221.302, 1659.167 220.008 C 1659.461 219.130, 1711.210 216.015, 1725.676 216.004 L 1730.852 216 1731.176 178.250 C 1731.433 148.318, 1731.788 139.982, 1732.893 138 C 1733.659 136.625, 1738.203 129.200, 1742.991 121.500 C 1747.778 113.800, 1757.009 98.950, 1763.504 88.500 C 1769.998 78.050, 1780.369 61.400, 1786.550 51.500 C 1792.732 41.600, 1797.700 33.401, 1797.591 33.280 C 1797.392 33.058, 1749.513 29.002, 1723.500 27.002 C 1715.800 26.410, 1706.125 25.497, 1702 24.974 C 1691.157 23.596, 1678.543 23.227, 1670.500 24.050 M 224.921 44.218 L 224.842 59.500 220.338 46.250 L 215.833 33 193.667 32.994 C 181.475 32.991, 167.887 32.707, 163.470 32.363 L 155.441 31.738 154.014 34.619 L 152.588 37.500 152.214 34.611 L 151.840 31.721 101.170 32.374 C 73.302 32.733, 45.213 33.304, 38.750 33.642 L 27 34.257 27 117.628 L 27 201 64 201 L 101 201 101 192 C 101 187.050, 101.166 183, 101.368 183 C 101.570 183, 113.780 187.950, 128.500 194 C 143.220 200.050, 155.593 205, 155.995 205 C 156.396 205, 159.791 197.516, 163.538 188.370 L 170.352 171.739 177.339 172.325 C 181.183 172.647, 184.652 173.437, 185.050 174.081 C 185.447 174.724, 187.445 181.606, 189.488 189.375 C 191.532 197.144, 193.367 203.769, 193.567 204.097 C 193.766 204.426, 201.033 203.032, 209.715 200.999 C 218.397 198.967, 225.838 197.487, 226.250 197.711 C 226.662 197.935, 227 199.249, 227 200.631 C 227 203.065, 227.166 203.127, 232.250 202.602 C 235.137 202.304, 246.500 201.813, 257.500 201.512 C 268.500 201.210, 282.337 200.689, 288.250 200.353 L 299 199.743 299 184.659 L 299 169.575 310.580 185.287 L 322.160 201 353.580 201 L 385 201 385 165.157 C 385 126.637, 385.791 104.753, 387.152 105.594 C 387.618 105.882, 388 127.916, 388 154.559 L 388 203 392.250 202.983 C 394.587 202.973, 409.550 202.308, 425.500 201.504 C 441.450 200.701, 455.962 200.034, 457.750 200.022 C 460.793 200.001, 461 199.778, 461 196.500 C 461 194.575, 461.422 193, 461.938 193 C 462.454 193, 469.535 195.717, 477.674 199.038 C 490.502 204.271, 492.620 204.873, 493.583 203.556 C 494.194 202.720, 497.306 195.555, 500.498 187.633 L 506.301 173.231 510.790 172.615 C 519.003 171.490, 520.972 171.797, 521.946 174.358 C 522.439 175.654, 524.503 183.019, 526.533 190.724 L 530.223 204.734 537.862 202.991 C 542.063 202.033, 554.546 199.094, 565.603 196.461 L 585.707 191.673 594.603 195.204 C 608.409 200.683, 612.921 201.504, 629 201.462 C 642.124 201.428, 644.307 201.159, 652 198.629 C 672.375 191.928, 686.821 179.616, 695.561 161.500 L 699.903 152.500 699.951 177.750 L 700 203 704.250 202.983 C 706.587 202.973, 721.550 202.308, 737.500 201.504 C 753.450 200.701, 767.962 200.034, 769.750 200.022 L 773 200 773 152 C 773 110, 773.188 104, 774.500 104 C 775.813 104, 776 110.056, 776 152.500 L 776 201 812 201 L 848 201 848 194 C 848 190.150, 848.268 187, 848.596 187 C 848.923 187, 850.463 187.905, 852.016 189.012 C 857.117 192.643, 869.353 197.931, 877.410 199.984 C 907.692 207.702, 944.439 193.564, 961.882 167.484 C 964.596 163.427, 967.803 157.496, 969.009 154.304 C 970.858 149.411, 975 130.212, 975 126.534 C 975 125.914, 969.600 123.649, 963 121.500 C 956.400 119.351, 951 117.331, 951 117.010 C 951 116.690, 957.075 114.652, 964.500 112.482 C 974.183 109.651, 977.998 108.106, 977.994 107.018 C 977.974 102.381, 971.412 81.280, 967.542 73.411 C 954.198 46.275, 925.290 30.497, 892.229 32.306 C 878.927 33.033, 872.141 34.823, 860 40.806 C 854.775 43.381, 850.163 45.640, 849.750 45.827 C 849.338 46.014, 849 43.204, 849 39.583 L 849 33 828 33 C 810 33, 807 32.786, 807 31.500 C 807 29.648, 791.994 29.522, 743.779 30.968 C 726.026 31.501, 699.913 32.227, 685.750 32.581 C 666.165 33.072, 660 33.525, 660 34.475 C 660 35.423, 658.126 35.276, 652.250 33.870 C 642.385 31.510, 624.711 31.378, 614.697 33.590 C 595.308 37.874, 578.185 50.733, 569.267 67.707 C 567.626 70.829, 566.269 72.431, 565.875 71.707 C 565.514 71.043, 562.379 62.063, 558.907 51.750 L 552.596 33 539.548 32.935 C 515.968 32.819, 495.506 31.899, 495.167 30.941 C 494.726 29.698, 478.252 29.741, 428.136 31.115 C 395.709 32.005, 386.610 31.987, 386.020 31.032 C 385.429 30.076, 377.619 30.089, 349.634 31.093 L 314 32.371 314 47.519 C 314 55.850, 313.724 62.942, 313.388 63.279 C 313.051 63.616, 307.347 56.828, 300.712 48.196 C 294.077 39.563, 288.506 32.317, 288.333 32.092 C 288.160 31.868, 278.451 31.332, 266.759 30.901 C 255.067 30.470, 240.887 29.852, 235.250 29.527 L 225 28.937 224.921 44.218 M 1686.395 29.939 C 1686.125 30.209, 1684.969 32.471, 1683.827 34.965 L 1681.751 39.500 1679.625 34.770 C 1677.701 30.486, 1677.180 30.038, 1674.107 30.020 C 1672.241 30.009, 1655.127 31.347, 1636.075 32.993 C 1603.724 35.789, 1600.977 35.890, 1594.468 34.511 C 1583.444 32.176, 1540.975 32.837, 1509.500 35.833 L 1502.500 36.500 1502.191 40.234 L 1501.881 43.969 1496.191 41.102 C 1470.591 28.205, 1434.384 28.217, 1408.750 41.132 L 1403 44.029 1403 40.514 C 1403 37.044, 1402.947 37, 1398.750 37.016 C 1385.708 37.067, 1310.418 33.602, 1309.982 32.931 C 1309.698 32.492, 1292.823 32.768, 1272.482 33.544 C 1252.142 34.319, 1232.195 34.964, 1228.156 34.977 C 1221.780 34.997, 1220.747 35.252, 1220.313 36.910 C 1219.859 38.648, 1219.529 38.701, 1216.657 37.502 C 1205.935 33.024, 1180.799 31.779, 1147.500 34.076 C 1139.250 34.645, 1109.910 35.066, 1082.301 35.011 L 1032.101 34.910 1031.086 38.705 C 1029.740 43.735, 1015.755 96.438, 1006.463 131.500 C 1002.381 146.900, 996.617 168.500, 993.653 179.500 C 990.690 190.500, 988.543 199.791, 988.882 200.146 C 989.222 200.502, 1008.625 204.646, 1032 209.356 L 1074.500 217.920 1093.500 214.613 C 1103.950 212.794, 1112.650 211.687, 1112.833 212.153 C 1113.017 212.619, 1133.154 213, 1157.583 213 C 1197.729 213, 1202 212.845, 1202 211.392 C 1202 210.134, 1202.599 209.936, 1204.750 210.485 C 1217.508 213.740, 1222.060 214.254, 1242.250 214.719 C 1261.002 215.151, 1264 215.016, 1264 213.742 C 1264 212.608, 1265.807 212.144, 1271.750 211.753 C 1276.013 211.473, 1279.650 211.639, 1279.833 212.122 C 1280.017 212.605, 1294.730 213, 1312.529 213 C 1340.794 213, 1363.187 213.669, 1393.750 215.428 L 1402 215.903 1402 209.951 C 1402 203.665, 1402.368 203.186, 1405.527 205.353 C 1409.062 207.777, 1423.316 212.786, 1431.455 214.463 C 1440.732 216.375, 1458.889 216.641, 1468.137 215.001 C 1477.036 213.422, 1485.703 210.660, 1494.485 206.602 L 1502 203.130 1502 208.065 L 1502 213 1546.500 213 C 1586.722 213, 1591 212.845, 1591 211.392 C 1591 210.134, 1591.599 209.936, 1593.750 210.485 C 1606.413 213.716, 1611.108 214.252, 1630.871 214.721 C 1643.673 215.024, 1652.494 214.851, 1652.871 214.290 C 1653.217 213.774, 1669.444 212.574, 1688.931 211.623 C 1708.418 210.672, 1724.730 209.667, 1725.181 209.388 C 1725.631 209.110, 1726 192.949, 1726 173.475 L 1726 138.067 1733.375 126.284 C 1740.994 114.109, 1762.683 79.215, 1778.160 54.231 C 1783.022 46.383, 1787 39.584, 1787 39.123 C 1787 38.145, 1785.265 37.954, 1745 34.498 C 1728.225 33.058, 1708.287 31.333, 1700.693 30.664 C 1693.099 29.995, 1686.665 29.668, 1686.395 29.939 M 232.763 71.520 L 232.500 106.268 221.528 73.134 L 210.557 40 185.285 40 L 160.013 40 152.559 54.750 L 145.105 69.500 145.053 54.132 L 145 38.764 120.250 39.377 C 106.637 39.714, 81.662 40.272, 64.750 40.618 L 34 41.246 34 117.623 L 34 194 63.654 194 L 93.308 194 92.607 171 L 91.907 148 98.953 148 C 103.061 148, 106 148.424, 106 149.017 C 106 149.576, 103.527 154.965, 100.504 160.993 L 95.007 171.952 97.754 173.352 C 99.264 174.122, 110.175 178.685, 122 183.492 C 133.825 188.298, 145.404 193.050, 147.731 194.051 C 150.309 195.160, 152.198 195.489, 152.565 194.895 C 152.897 194.358, 155.799 187.524, 159.015 179.709 L 164.861 165.500 177.786 165.222 L 190.710 164.944 194.483 179.370 C 196.558 187.305, 198.554 194.279, 198.918 194.868 C 199.366 195.592, 204.928 194.658, 216.040 191.995 C 225.093 189.825, 232.838 188.038, 233.250 188.025 C 233.662 188.011, 234 189.633, 234 191.628 L 234 195.257 246.750 194.644 C 253.762 194.307, 266.728 193.746, 275.562 193.396 L 291.624 192.761 291.183 170.381 C 290.936 157.828, 291.128 148.022, 291.621 148.050 C 292.104 148.078, 299.912 158.140, 308.972 170.411 L 325.444 192.722 350.694 193.438 C 364.581 193.831, 376.340 193.908, 376.825 193.608 C 377.310 193.309, 377.798 172.040, 377.910 146.344 C 378.022 120.648, 378.340 99.259, 378.616 98.812 C 378.892 98.366, 382.691 98, 387.059 98 L 395 98 395 146.500 L 395 195 398.750 195.015 C 400.813 195.023, 414.087 194.494, 428.250 193.840 L 454 192.651 454 187.326 C 454 184.397, 454.225 182, 454.500 182 C 454.774 182, 462.233 184.925, 471.076 188.500 C 479.918 192.075, 487.704 195, 488.379 195 C 489.053 195, 492.281 188.362, 495.553 180.250 L 501.500 165.500 514.480 165.500 L 527.459 165.500 531.509 180.500 C 534.453 191.401, 535.961 195.473, 537.030 195.403 C 537.838 195.349, 549.424 192.726, 562.775 189.574 L 587.050 183.842 595.275 187.351 C 618.564 197.285, 638.842 197.368, 659.500 187.612 C 674.366 180.591, 686.301 167.720, 690.884 153.766 C 696.887 135.489, 693.123 116.507, 681.065 104.258 L 676.113 99.227 679.182 98.614 C 680.869 98.276, 687.819 98, 694.625 98 L 707 98 707 146.500 L 707 195 712.250 195.003 C 721.483 195.008, 764.481 192.812, 765 192.309 C 765.275 192.042, 765.500 170.376, 765.500 144.162 L 765.500 96.500 774.809 96.212 L 784.118 95.923 783.409 144.977 L 782.700 194.031 811.600 193.766 L 840.500 193.500 840.783 182.208 L 841.066 170.916 848.283 176.860 C 863.348 189.267, 877.008 194.336, 895.500 194.384 C 908.686 194.417, 918.193 192.066, 930.443 185.740 C 941.244 180.163, 955.079 166.537, 959.808 156.817 C 963.223 149.798, 967.651 132.172, 966.293 131.004 C 965.857 130.629, 957.400 127.504, 947.500 124.060 C 937.600 120.615, 928.869 117.449, 928.098 117.024 C 926.716 116.261, 931.177 114.737, 957.500 106.972 C 963.550 105.188, 968.804 103.558, 969.176 103.350 C 970.190 102.785, 965.186 85.360, 962.040 78.500 C 953.374 59.606, 935.616 45.896, 913.500 41.025 C 902.133 38.522, 894.008 38.510, 882 40.980 C 870.588 43.328, 859.172 48.709, 849.113 56.481 L 842 61.977 842 50.988 L 842 40 821 40 C 803 40, 800 39.786, 800 38.500 C 800 37.675, 799.212 37.008, 798.250 37.018 C 797.288 37.028, 771.300 37.694, 740.500 38.498 C 709.700 39.302, 680.729 39.969, 676.119 39.980 L 667.738 40 668.323 43.605 C 668.988 47.700, 669.641 47.697, 658.926 43.646 C 645.696 38.645, 625.951 37.753, 613 41.573 C 593.053 47.456, 577.094 62.702, 572.390 80.368 C 568.246 95.934, 572.852 114.513, 583.741 126.155 L 588.314 131.044 585.349 134.708 C 583.717 136.723, 581.892 138.536, 581.291 138.736 C 580.645 138.952, 573.499 118.996, 563.767 89.800 L 547.334 40.500 521.890 40.234 L 496.445 39.967 493.017 46.734 L 489.589 53.500 488.690 45.209 L 487.792 36.918 475.646 37.422 C 468.966 37.700, 447.300 38.179, 427.500 38.486 C 407.700 38.794, 388.688 39.297, 385.250 39.603 C 379.888 40.080, 379 39.925, 379 38.512 C 379 37.419, 378.411 37.034, 377.250 37.367 C 376.288 37.643, 364.025 38.157, 350 38.510 C 335.975 38.863, 323.721 39.371, 322.768 39.638 C 321.200 40.077, 321.011 42.304, 320.768 63.202 L 320.500 86.280 302.500 62.744 L 284.500 39.209 276 38.624 C 271.325 38.302, 259.743 37.754, 250.263 37.406 L 233.026 36.772 232.763 71.520 M 175.750 52.744 C 180.287 52.929, 187.713 52.929, 192.250 52.744 C 196.787 52.559, 193.075 52.407, 184 52.407 C 174.925 52.407, 171.213 52.559, 175.750 52.744 M 46.423 77.500 C 46.424 89.050, 46.570 93.638, 46.747 87.696 C 46.924 81.753, 46.923 72.303, 46.745 66.696 C 46.567 61.088, 46.422 65.950, 46.423 77.500 M 407.431 109.500 C 407.432 122.700, 407.574 127.962, 407.747 121.193 C 407.921 114.424, 407.920 103.624, 407.746 97.193 C 407.572 90.762, 407.431 96.300, 407.431 109.500 M 454.030 110.750 C 454.054 122.195, 454.314 125.064, 455.189 123.555 C 455.810 122.486, 459.160 115.848, 462.633 108.805 L 468.949 96 461.475 96 L 454 96 454.030 110.750 M 881.456 101.478 C 879.651 103.391, 877.403 107.280, 876.460 110.120 C 875.001 114.513, 874.922 116.072, 875.928 120.568 C 877.179 126.158, 881.575 133.167, 884.969 134.983 C 886.977 136.058, 887 135.859, 887 117.035 C 887 103.533, 886.671 98, 885.868 98 C 885.246 98, 883.260 99.565, 881.456 101.478 M 693.563 105.897 C 693.258 106.391, 694.469 109.878, 696.254 113.647 L 699.500 120.500 699.801 114.105 C 699.967 110.588, 699.869 107.101, 699.583 106.355 C 699.003 104.845, 694.429 104.497, 693.563 105.897 M 46.451 145.500 C 46.451 165.300, 46.585 173.542, 46.748 163.815 C 46.912 154.088, 46.912 137.888, 46.749 127.815 C 46.586 117.742, 46.452 125.700, 46.451 145.500 M 278.389 122.500 C 278.390 129.650, 278.550 132.444, 278.742 128.708 C 278.935 124.973, 278.934 119.123, 278.739 115.708 C 278.545 112.294, 278.387 115.350, 278.389 122.500 M 245.382 122.500 C 245.384 129.100, 245.546 131.670, 245.741 128.211 C 245.937 124.752, 245.936 119.352, 245.738 116.211 C 245.540 113.070, 245.380 115.900, 245.382 122.500 M 1245.451 151 C 1245.451 170.525, 1245.585 178.513, 1245.748 168.750 C 1245.912 158.988, 1245.912 143.013, 1245.748 133.250 C 1245.585 123.488, 1245.451 131.475, 1245.451 151 M 719.440 146.500 C 719.440 161.900, 719.579 168.060, 719.748 160.189 C 719.917 152.319, 719.917 139.719, 719.747 132.189 C 719.578 124.660, 719.439 131.100, 719.440 146.500 M 1662.428 155 C 1662.428 167.375, 1662.571 172.438, 1662.747 166.250 C 1662.922 160.063, 1662.922 149.938, 1662.747 143.750 C 1662.571 137.563, 1662.428 142.625, 1662.428 155 M 1713.420 176.500 C 1713.419 187.500, 1713.565 192.136, 1713.745 186.803 C 1713.924 181.470, 1713.925 172.470, 1713.746 166.803 C 1713.568 161.136, 1713.421 165.500, 1713.420 176.500 M 1306.287 187.740 C 1309.469 187.939, 1314.419 187.937, 1317.287 187.736 C 1320.154 187.535, 1317.550 187.372, 1311.500 187.374 C 1305.450 187.376, 1303.104 187.541, 1306.287 187.740" stroke="none" fill="#c6cb48" fill-rule="evenodd"/></svg>